<svg xmlns="http://www.w3.org/2000/svg" viewBox="0 0 331.32 408.06"><defs><style>.cls-1{isolation:isolate;}.cls-2{mix-blend-mode:screen;}.cls-3{fill:#fff;fill-rule:evenodd;}</style></defs><g class="cls-1"><g id="Layer_2" data-name="Layer 2"><g id="typography" class="cls-2"><g id="Layer_10_copy" data-name="Layer 10 copy"><path class="cls-3" d="M171.08,276.37c-.78-1.79-3.88-3.73-5.4-1.7a.32.32,0,0,0,.19.46l.3,0c-2,.5-3.61,2.22-2.93,4.47s3.68,3,5.75,2.1A4.13,4.13,0,0,0,171.08,276.37Zm-5.61,1.9c-.32.49-.65,1-1,1.48-.06-.11-.12-.22-.17-.33C164.72,279,165.09,278.65,165.47,278.27Zm1.22.42c-.36.65-.71,1.31-1.07,2a.13.13,0,0,0,0,.06,3,3,0,0,1-.39-.22C165.71,279.9,166.19,279.29,166.69,278.69Zm3.67.08a3.73,3.73,0,0,0,0-.59.65.65,0,0,0-.64-.61,7.81,7.81,0,0,0,.35-.84.09.09,0,0,0,0-.05A2.88,2.88,0,0,1,170.36,278.77Z"/><path class="cls-3" d="M87.89,328.56c-1-.34-5.29-2-6-1.65-.38.65,4.15,3.82,4.92,4.14l.79.32c1.28.38,5.78.88,6.5-.23-.18-.27-4.69-1.9-5.56-2.3Z"/><path class="cls-3" d="M86.12,334.94c-1-.34-5.29-2-6-1.65-.38.65,4.15,3.82,4.92,4.14l.79.32c1.28.38,5.77.88,6.5-.23-.18-.28-4.69-1.9-5.56-2.3Z"/><path class="cls-3" d="M136.59,327.36c-.28,0-.27.46,0,.43h.06a.16.16,0,0,0,.09.07c2.78,1,4.34-3.82,4.29-5.78a.14.14,0,0,0-.28,0C140.11,324.23,139.39,327.22,136.59,327.36Z"/><path class="cls-3" d="M88.6,322.19c-1-.34-5.29-2-6-1.66-.38.65,4.15,3.82,4.92,4.15l.79.31c1.28.38,5.77.88,6.5-.23-.18-.27-4.69-1.9-5.56-2.3Z"/><path class="cls-3" d="M54.11,300.63c-2.11.56-4.18.56-4.4.84.4,1.08,3.73,1.37,4.89,1.12l.39-.13.17-.07c.58-.22,3.88-2.71,3.59-3.12S56.22,300.07,54.11,300.63Z"/><path class="cls-3" d="M54.11,296.38c-2.11.56-4.18.56-4.4.83.4,1.08,3.73,1.37,4.89,1.13l.39-.13.17-.07c.58-.22,3.88-2.71,3.59-3.12S56.22,295.82,54.11,296.38Z"/><path class="cls-3" d="M54.11,291.77c-2.11.56-4.18.56-4.4.84.4,1.08,3.73,1.37,4.89,1.12l.39-.13.17-.07c.58-.22,3.88-2.71,3.59-3.12S56.22,291.21,54.11,291.77Z"/><path class="cls-3" d="M142.34,342.29a.27.27,0,0,0-.44,0,4,4,0,0,1-.39.42,10.22,10.22,0,0,1-2.72,1.22c-.88.11-1.82.12-2.76.26a.29.29,0,0,0,0,.55,9.32,9.32,0,0,0,1.68.09,5.3,5.3,0,0,0,3.31-1,1.33,1.33,0,0,0,.19-.14l.16-.13a4.14,4.14,0,0,0,1-1,.21.21,0,0,0,0-.26Z"/><path class="cls-3" d="M88.6,315.45c-1-.34-5.29-2-6-1.65-.38.65,4.15,3.82,4.92,4.14l.79.32c1.28.38,5.77.88,6.5-.23-.18-.28-4.69-1.9-5.56-2.3Z"/><path class="cls-3" d="M156,341.61a10.61,10.61,0,0,0,1.79-2.24,9.63,9.63,0,0,0,1-2.52,10.93,10.93,0,0,0,.32-2.59,6.94,6.94,0,0,0-.24-1.84,5.32,5.32,0,0,0-.81-1.74,4.46,4.46,0,0,0-1.55-1.31,5.42,5.42,0,0,0-2.48-.55,8.5,8.5,0,0,0-4.31.92,11.45,11.45,0,0,0-3.16,2.52,10.71,10.71,0,0,0-2,3.24s0,0,0,0l-.14.11a7.07,7.07,0,0,0-.62.55c-.3.29-.57.59-.82.88a6.23,6.23,0,0,1-.86.84,13.75,13.75,0,0,1-5.33,2.68,18,18,0,0,1-6.68.41,13.15,13.15,0,0,1-5.2-1.55,10,10,0,0,1-3.15-2.79,9.42,9.42,0,0,1-1.53-3.46,17.35,17.35,0,0,1-.41-3.71,11.67,11.67,0,0,1,.35-2.59,18.09,18.09,0,0,1,1.06-3.07,18.66,18.66,0,0,1,1.76-3.11,14.38,14.38,0,0,1,2.4-2.69,10.18,10.18,0,0,1,3-1.83,7.85,7.85,0,0,1,3.63-.51,4.8,4.8,0,0,1,3.06,1.22,3.35,3.35,0,0,1,1.05,2.42A8.12,8.12,0,0,1,136,321a7.58,7.58,0,0,1-.52,1.61,4,4,0,0,1-.3.55l-.4.69a4.44,4.44,0,0,0-.36.67,1.48,1.48,0,0,0-.13.55.6.6,0,0,0,.43.6,3.15,3.15,0,0,0,.93.2,2.76,2.76,0,0,0,1.29-.17,2.13,2.13,0,0,0,1-1.08,9,9,0,0,0,.65-1.77,15,15,0,0,0,.35-1.92,14.4,14.4,0,0,0,.11-1.45,4.63,4.63,0,0,0-.54-2.21,5.71,5.71,0,0,0-1.51-1.83,8.51,8.51,0,0,0-2.35-1.29,11.5,11.5,0,0,0-3-.65,17.91,17.91,0,0,0-5.34.34,15.7,15.7,0,0,0-4.43,1.66,16,16,0,0,0-3.49,2.65,17.37,17.37,0,0,0-2.55,3.28,15,15,0,0,0-1.54,3.58,13.14,13.14,0,0,0-.51,3.56,12.44,12.44,0,0,0,1,4.66,14.3,14.3,0,0,0,2.81,4.36,17.25,17.25,0,0,0,4.65,3.48A18.86,18.86,0,0,0,128.7,343a20.94,20.94,0,0,0,5,.05,21.48,21.48,0,0,0,4.65-1.09,18.75,18.75,0,0,0,4-2,17.61,17.61,0,0,0,1.56-1.17,6.74,6.74,0,0,0,.27,1.71,5.13,5.13,0,0,0,.87,1.73,5.06,5.06,0,0,0,1.6,1.33,5.47,5.47,0,0,0,2.46.6,8.59,8.59,0,0,0,2.21-.2,11,11,0,0,0,2-.65A9.1,9.1,0,0,0,156,341.61Zm-4.14.57a3.8,3.8,0,0,1-1.32.16,2.5,2.5,0,0,1-1.35-.39,2.75,2.75,0,0,1-.84-.82,3.07,3.07,0,0,1-.41-1.05,5,5,0,0,1-.11-1,7.74,7.74,0,0,1,.41-2.21,10.29,10.29,0,0,1,1.19-2.54,7.58,7.58,0,0,1,2-2.08,4.22,4.22,0,0,1,2.68-.81,2.55,2.55,0,0,1,1.41.4,3,3,0,0,1,.86.91,3.35,3.35,0,0,1,.44,1.15,7,7,0,0,1,.1,1.11,8.56,8.56,0,0,1-.22,1.85,7.93,7.93,0,0,1-.68,1.85,7.26,7.26,0,0,1-1.18,1.69,6.53,6.53,0,0,1-1.76,1.33A6.41,6.41,0,0,1,151.88,342.18Z"/><path class="cls-3" d="M155.1,334c0-2-2.52-.71-3.26-.05-1.18,1.06-2.83,3.61-2,5.25a.19.19,0,0,0,.31,0c.48-1,.37-2.14.93-3.17a6.36,6.36,0,0,1,1.13-1.5c.6-.57,2.06-1.59,2.58-.43C154.83,334.23,155.1,334.13,155.1,334Z"/><path class="cls-3" d="M88.6,303.41c-1-.34-5.29-2-6-1.66-.38.65,4.15,3.82,4.92,4.15l.79.31c1.28.38,5.77.88,6.5-.23-.18-.27-4.69-1.9-5.56-2.3Z"/><path class="cls-3" d="M88.6,309.43c-1-.34-5.29-2-6-1.66-.38.66,4.15,3.83,4.92,4.15.26.11.53.22.79.31,1.28.38,5.77.89,6.5-.22-.18-.28-4.69-1.91-5.56-2.31Z"/><path class="cls-3" d="M54.11,287.16c-2.11.56-4.18.56-4.4.84.4,1.08,3.73,1.37,4.89,1.13L55,289l.17-.06c.58-.22,3.88-2.71,3.59-3.13S56.22,286.6,54.11,287.16Z"/><path class="cls-3" d="M2.94,190.06c.47-.51.77-1.14,1.26-1.64a4.53,4.53,0,0,1,1.87-1.06.5.5,0,0,0-.13-1c-1.73-.09-4.2,1.48-3.78,3.47A.47.47,0,0,0,2.94,190.06Z"/><path class="cls-3" d="M22.8,176.09a.74.74,0,0,0,.71.72l12.29-.13c2.31,0,4.67.31,6.52-1.27a.8.8,0,0,0-.16-1.24,1.88,1.88,0,0,0-1.59-.39l-.28,0a.67.67,0,0,0-.57-.31c-1.91,0-3.8,0-5.69.12a25.32,25.32,0,0,1-.42-4A137.22,137.22,0,0,1,62,87.26a99.55,99.55,0,0,1,9.82-12c6-3.41,14.45-7,19.6-7.78,5.86-.62,10.85-.41,16.22,2.2a16.55,16.55,0,0,1,5.7,4.77,18.8,18.8,0,0,1,2.72,5.26,23.48,23.48,0,0,1,.69,2.45,16.6,16.6,0,0,1,.29,6.16,16.34,16.34,0,0,1-.49,2.18,12.68,12.68,0,0,1-4,6.06,14,14,0,0,1-6.93,3.1,19.06,19.06,0,0,1-9-.83,8.12,8.12,0,0,1-3-1.92,11.19,11.19,0,0,1-2.34-3.2,6.14,6.14,0,0,1-.71-3.25,3.09,3.09,0,0,1,.44-1.3,3.31,3.31,0,0,1,1.11-1.06A17.52,17.52,0,0,1,99,85.47a4.34,4.34,0,0,1,1.89.25,2.57,2.57,0,0,1,1.11.84,2.86,2.86,0,0,1,.53,1.21,3.66,3.66,0,0,1,0,1.32,3,3,0,0,1-.43,1.09c0,.12-.25.27-.34.37a1.11,1.11,0,0,1-.39.2,4.77,4.77,0,0,1-.82.16,1.05,1.05,0,0,1-.43-.07c-.17,0-.68-.67-.75-.62s.46.81.57.91a1.15,1.15,0,0,0,.6.19,3.75,3.75,0,0,0,.94-.06,1.47,1.47,0,0,0,.61-.24c.18-.07.38-.34.51-.45a3.42,3.42,0,0,0,.66-1.32,4.41,4.41,0,0,0,.1-1.62,3.75,3.75,0,0,0-.6-1.62,3.54,3.54,0,0,0-1.46-1.25A5.2,5.2,0,0,0,99,84.3a16.93,16.93,0,0,0-7.57,2.55,4.78,4.78,0,0,0-1.67,1.49A4.65,4.65,0,0,0,89,90.28a7.64,7.64,0,0,0,.72,4.23,13,13,0,0,0,2.61,3.82A10,10,0,0,0,96,100.81,21.12,21.12,0,0,0,106,102a16.35,16.35,0,0,0,8.18-3.44,15.11,15.11,0,0,0,5-7.18,15.61,15.61,0,0,0,.63-2.59,19.33,19.33,0,0,0-.32-7.15,23.69,23.69,0,0,0-.78-2.74,20.51,20.51,0,0,0-3.22-6,18.92,18.92,0,0,0-6.66-5.34c-5.91-2.68-11.22-2.83-17.57-2a60.5,60.5,0,0,0-14,5.4l1.54-1.22c1.42-1,2.84-2,4.29-3,1.35-.76,2.75-1.44,4-2.27a39.28,39.28,0,0,1,5.65-1.74c3.18-.48,6.38-.7,9.37-.89,7.62-.49,15.53.68,23.06-.78,3.81-.74,8.66-2.88,8.65-7.5,0-4-3.52-5.64-7-5.84a4.9,4.9,0,0,0-1.08,0c-.37,0-.75,0-1.11.07a.87.87,0,0,0-.72.53,3.08,3.08,0,0,0-1.54,1.08,5.3,5.3,0,0,0-.89,4.62c1.24,3.44,6,2.23,6.17-1.18,0-1-1.49-1-1.51,0a1.93,1.93,0,0,1-.82,1.54.78.78,0,0,0-.51-.25A2.09,2.09,0,0,1,123.2,51a3.06,3.06,0,0,1,1.6-1.43,4.81,4.81,0,0,1,3.73.65,4.76,4.76,0,0,1,.87.06,3.18,3.18,0,0,1,1.24,2.28,8.16,8.16,0,0,0,.14,2.16.67.67,0,0,0,.67.43c-.59,2.06-3.11,3.29-5.28,3.92-3.48,1-7.36,1-11,1a166,166,0,0,0-17.7.78,59.93,59.93,0,0,0-12.24,2.44c2.2-1.72,4.43-3.35,6.66-4.9q3.83-2.07,7.73-3.93c2.61-.49,4.78-1.86,7.28-3.11,1.06-.54,2.14-1,3.22-1.52q5.38-2.18,10.94-4a.73.73,0,0,0,.48-.89,88.88,88.88,0,0,1,19-4c-.11,1.35-.2,2.7-.19,4,0,.23,0,.5,0,.77s0,.45,0,.67a.57.57,0,0,0,.47.65,1,1,0,0,0,.54.35,1,1,0,0,0,.88-.12.58.58,0,0,0,.82-.54v-.17a.6.6,0,0,0,.69-.59V43.11c.31-2.35.32-4.92.38-5.64.09-1.22,1.4-8.19-1.51-7.56a.58.58,0,0,0-.73.29c-1,.58-1,1.84-1.07,2.87,0,1.45,0,2.92.08,4.39a1.49,1.49,0,0,0,0,.21l-2.52.48A42.7,42.7,0,0,0,123,41a.74.74,0,0,0-.3.21q-8.07,2.37-15.9,5.46C102.94,48.47,98.93,50,95,51.55c-3.55,2.31-6.73,4.51-7.55,5.05C82.32,60,77.63,63.65,73,67.41c-1,1.12-2,2.22-3.12,3.24-2.69,3.51-5.78,7.74-9.8,13a139.8,139.8,0,0,0-29,85.27c0,.21,0,.43,0,.64,0,.5,0,1,0,1.49a15.32,15.32,0,0,0,.22,2.52,16.73,16.73,0,0,0-5,.56,20.51,20.51,0,0,0-3.38.47A.81.81,0,0,0,22.8,176.09Z"/><path class="cls-3" d="M3,195.77a.43.43,0,0,0,.52.29,1.82,1.82,0,0,0,1-.83,10.65,10.65,0,0,1,2.08-2.16,11.74,11.74,0,0,1,4.94-2c.49-.1.33-.78-.11-.81a8.75,8.75,0,0,0-5.65,1.62C4.65,192.64,2.66,194.19,3,195.77Z"/><path class="cls-3" d="M28.35,121.42c4-10,8-19.48,14.21-28.35.14-.2-.19-.38-.33-.19C36,101.32,30.5,111.05,28.11,121.35A.13.13,0,0,0,28.35,121.42Z"/><path class="cls-3" d="M30,112.14c2.38-5.29,4-10.82,6.65-16a.19.19,0,0,0-.32-.19c-2.87,4.78-5.93,10.45-6.78,16C29.5,112.19,29.85,112.41,30,112.14Z"/><path class="cls-3" d="M133.34,320.21c-2.13-4.57-7.17-.23-9,2.22a18.17,18.17,0,0,0-2,3.47c-1.13,2-2,4.16-1.31,6.35.61,2,1.81,4.45,4.21,4.18a.26.26,0,0,0,0-.51,3.38,3.38,0,0,1-1.24-.43.24.24,0,0,0,0-.38c-2.62-2.11-2.52-5.27-1.48-8.11.27-.52.56-1,.83-1.46.94-1.57,7.79-10.35,9.65-4.81a.15.15,0,0,0,.29-.08c0-.11-.06-.2-.09-.31C133.24,320.43,133.39,320.33,133.34,320.21Z"/><path class="cls-3" d="M268.62,340a11.59,11.59,0,0,1-.26,3,22.51,22.51,0,0,0-1.11,2.72c-.13.79.65,1.64,1.46,1.12,2-1.24,2.28-5.12,1.46-7.1A.79.79,0,0,0,268.62,340Z"/><path class="cls-3" d="M208.18,375.65a16.77,16.77,0,0,0-5.94-4.47,25.31,25.31,0,0,0-15.47-2.1c-7.29,1.75-14.65,4.53-22.15,7.09-3.29-1.61-6.55-3.16-9.83-4.52-7.17-2.5-17.15-3.82-24.72-4.15a43.89,43.89,0,0,0-6.17.21,12.83,12.83,0,0,0-4.6,1.3,4.36,4.36,0,0,0-1.48,1.32,3.33,3.33,0,0,0-.55,1.93,5.23,5.23,0,0,0,.62,2.14,12.05,12.05,0,0,0,1.65,2.28,19.34,19.34,0,0,0,6.83,4.93,26.47,26.47,0,0,0,8.27,1.94,47.26,47.26,0,0,0,9.9-.47,16.28,16.28,0,0,1,3-.8c.9-.12,1.81-.21,2.68-.25,1-.23,2.08-.48,3.15-.76,3.33-.91,6.59-2,9.81-3.1,3.53,1.75,7.05,3.55,10.67,5.29-1.89,1-3.73,1.89-5.6,2.75l-1.59-.73A34.91,34.91,0,0,0,150.23,382c-1.94.44-3.81.8-5.69,1.05a1.45,1.45,0,0,1-.25.1,6.25,6.25,0,0,0-2.3,1.57,3.38,3.38,0,0,0-.66,1.17,3.11,3.11,0,0,0-.09,1.39,3.36,3.36,0,0,0,.55,1.31,5.4,5.4,0,0,0,1,1.13,13.15,13.15,0,0,0,4.79,2.66,17.59,17.59,0,0,0,5.45.7,36.35,36.35,0,0,0,11.6-2.51c1.41-.54,2.78-1.1,4.1-1.69a53,53,0,0,0,9.26,3.17,30.66,30.66,0,0,1-4,3.22c-2.83-1-5.4-2.12-8.17-3a16.56,16.56,0,0,0-5.79.13,6.82,6.82,0,0,0-1.86.74,3.73,3.73,0,0,0-1.19,1.18,2.75,2.75,0,0,0-.4,1.5,3.32,3.32,0,0,0,.41,1.48,5.67,5.67,0,0,0,2.6,2.29,10.64,10.64,0,0,0,4.4,1,16.28,16.28,0,0,0,5.82-1,27.43,27.43,0,0,0,4.93-2.5c.69.22,1.35.41,2,.58.4.1.8.22,1.22.32l-.3.38a20.2,20.2,0,0,1-5.39,5.12l-.39.21a4.59,4.59,0,0,0-.7-.69,6,6,0,0,0-2.24-1.06,9,9,0,0,0-2.47-.29,9.35,9.35,0,0,0-2.23.3,3.82,3.82,0,0,0-1.53.77c-.07,0-.18.21-.23.27a1.21,1.21,0,0,0-.12.35,1,1,0,0,0,0,.38c0,.11.13.26.16.35a2.33,2.33,0,0,0,.69.56,8.5,8.5,0,0,0,1.14.49,10.73,10.73,0,0,0,4.54.48,10,10,0,0,0,3.18-1,3.89,3.89,0,0,1,.24.5,10.31,10.31,0,0,1,.35,2.95c.38-.45.11-2.49-.05-3.06-.07-.2-.15-.38-.22-.55l.33-.18a21,21,0,0,0,5.77-5.26c.2-.25.41-.51.62-.79a15.13,15.13,0,0,0,4.61.36,3.4,3.4,0,0,0,1.23-.38,1.92,1.92,0,0,0,.86-.9A2.23,2.23,0,0,0,186,396a5.11,5.11,0,0,0-.55-1.5,4.63,4.63,0,0,0-.79-1.12,2.12,2.12,0,0,0-.84-.51,8.31,8.31,0,0,1-.87,0,1.81,1.81,0,0,1,.7,0l.17.05H184a10.66,10.66,0,0,0,4.85-1,5.56,5.56,0,0,0,1.52-1.11,3.42,3.42,0,0,0,.39-.48,40,40,0,0,0,6.79,1.43,14.15,14.15,0,0,0,3.12,0,6.85,6.85,0,0,0,2.65-.87,4.55,4.55,0,0,0,1.84-2,6.18,6.18,0,0,0,.49-2.94,5.79,5.79,0,0,0-.8-2.53,8.88,8.88,0,0,0-1.8-2.15,11.35,11.35,0,0,0-1.08-.87,17.85,17.85,0,0,0-4.51-2.27,20.75,20.75,0,0,0-7.2-1.13,17.5,17.5,0,0,0-7.55,1.8c-2.06,1-4.1,2.18-6.14,3.28-3.46-1.6-6.85-3.31-10.21-5,6.94-2.48,13.74-5.11,20.63-6.93a24.5,24.5,0,0,1,14.93,1.72,17,17,0,0,1,5.88,4.13,9.94,9.94,0,0,1,1.72,2.75c.22.56.67,3.13.7,3.18.33-.46-.23-2.82-.38-3.31A9.79,9.79,0,0,0,208.18,375.65ZM153,379.77c-6.27,1.51-11.74,2.48-18.23,2a23.78,23.78,0,0,1-7.66-1.88,17.24,17.24,0,0,1-6.14-4.51,9.1,9.1,0,0,1-1.36-1.91,3,3,0,0,1-.39-1.29,1.21,1.21,0,0,1,.22-.76,2.43,2.43,0,0,1,.84-.72,11.2,11.2,0,0,1,3.85-1,42.45,42.45,0,0,1,5.86-.15c7.23.39,17.14,1.74,24,4.21,2.5,1.1,4.95,2.28,7.4,3.48C158.61,378.17,155.82,379,153,379.77Zm10.7,8.35A33.86,33.86,0,0,1,153,390.53a14.58,14.58,0,0,1-4.65-.56,10.32,10.32,0,0,1-3.89-2.11,3.9,3.9,0,0,1-.57-.63,1.12,1.12,0,0,1-.17-.37c0-.06,0-.15,0-.2a1.7,1.7,0,0,1,.18-.3,3.77,3.77,0,0,1,1.39-.91,12.46,12.46,0,0,1,2.7-.77c6.16-.91,11.77.33,17.44,2.75C164.84,387.67,164.28,387.9,163.71,388.12Zm5.52,9.73a14.72,14.72,0,0,1-5.16,1,8.83,8.83,0,0,1-3.69-.75,4.19,4.19,0,0,1-1.87-1.56,1.8,1.8,0,0,1-.23-.71,1.18,1.18,0,0,1,.16-.61,2,2,0,0,1,.65-.64,4.23,4.23,0,0,1,1.38-.56,15,15,0,0,1,5.21-.17s3.33,1.29,6.76,2.45A26.57,26.57,0,0,1,169.23,397.85Zm-.45,6.85a9.59,9.59,0,0,1-4.19-.36,5.72,5.72,0,0,1-1-.39,1.93,1.93,0,0,1-.46-.35l-.06-.11s0-.05,0-.07,0-.07,0-.1.09-.1.12-.13a2.85,2.85,0,0,1,1.22-.63,8.45,8.45,0,0,1,2-.34,9.66,9.66,0,0,1,2.34.2,5.84,5.84,0,0,1,2.1.9,5.14,5.14,0,0,1,.59.53A9.17,9.17,0,0,1,168.78,404.7Zm10.09-7.95c-.61-.15-1.2-.32-1.75-.47-.29-.08-.58-.16-.85-.26a32.33,32.33,0,0,0,4-3.49c.87.14,1.73.24,2.6.3-.12,0-.23.08-.37.13a3.31,3.31,0,0,0-.94.61A23.4,23.4,0,0,0,178.87,396.75Zm4.1-2.68a.69.69,0,0,1,.4-.06.9.9,0,0,1,.39.25c.16.09.43.66.55.81a4.36,4.36,0,0,1,.4,1.13,1.1,1.1,0,0,1,0,.57.74.74,0,0,1-.31.3,2.64,2.64,0,0,1-.79.21,12.48,12.48,0,0,1-3.5-.27,19.34,19.34,0,0,1,2.27-2.54A2.59,2.59,0,0,1,183,394.07Zm4.95-4a8.76,8.76,0,0,1-3.89.7c-.64,0-1.26-.07-1.9-.15.65-.71,1.29-1.46,1.93-2.23.07-.1.16-.19.23-.29,1.4.56,2.83,1.09,4.28,1.56A3.26,3.26,0,0,1,187.92,390Zm-1.26-3.78s0,0,.05,0a2.66,2.66,0,0,1,1-.19,1.87,1.87,0,0,1,.75.17,1.7,1.7,0,0,1,.58.41,1.9,1.9,0,0,1,.37.59C188.47,386.9,187.56,386.58,186.66,386.25Zm-2.72-5.1a14.79,14.79,0,0,1,6.39-1.52,18.15,18.15,0,0,1,6.28,1,15.12,15.12,0,0,1,3.81,1.91c.3.22.57.44.85.68a6.1,6.1,0,0,1,1.27,1.5A2.85,2.85,0,0,1,203,386a3.78,3.78,0,0,1-.23,1.7,2,2,0,0,1-.79.88,4.33,4.33,0,0,1-1.63.52,12.59,12.59,0,0,1-2.53,0,36.58,36.58,0,0,1-6.22-1.28,3.8,3.8,0,0,0-.3-1.45,3.88,3.88,0,0,0-.8-1.24,3.92,3.92,0,0,0-2.78-1.18,4.88,4.88,0,0,0-1.73.33,7.19,7.19,0,0,0-1.72,1l-1.94-.77c-.89-.38-1.78-.75-2.65-1.15C181.09,382.63,182.51,381.87,183.94,381.15Zm-7,3.75c1.46.68,2.94,1.35,4.44,2,.32.14.66.28,1,.4-.84,1-1.68,2-2.54,2.94a45.23,45.23,0,0,1-8.29-2.59c1.5-.71,3-1.47,4.54-2.27Z"/><path class="cls-3" d="M262.78,335.62c.65,1.86,1.68,3.72.91,5.7s-2.27,2.25-3.78,3.31a1.08,1.08,0,0,0,.53,2c2.21.21,4.19-2.15,4.93-4,1.08-2.73,0-4.9-1-7.45C264,334.18,262.42,334.58,262.78,335.62Z"/><path class="cls-3" d="M54.11,305.24c-2.11.56-4.18.56-4.4.83.4,1.08,3.73,1.37,4.89,1.13l.39-.14.17-.06c.58-.22,3.88-2.71,3.59-3.13S56.22,304.68,54.11,305.24Z"/><path class="cls-3" d="M72.28,345.61A5.77,5.77,0,0,1,70,343.48a6.68,6.68,0,0,1-.4-5.88c.25-.78-.88-1.5-1.43-.83C66.39,339,66.66,342,68,344.4c.84,1.51,4.12,5.12,6,3.22a.7.7,0,0,0,.11-.82C73.7,346,73,346,72.28,345.61Z"/><path class="cls-3" d="M1.51,204.88c2.12-8.52,15.14-11.53,22.45-12.33a.49.49,0,0,0,0-1,29.49,29.49,0,0,0-15.71,4c-3.48,2-7.74,4.77-8.14,9.1C0,205.5,1.32,205.65,1.51,204.88Z"/><path class="cls-3" d="M62.36,344.39A3.44,3.44,0,0,1,62,341c.38-.79-.77-1.49-1.19-.69a4.89,4.89,0,0,0,.11,4.76c.69,1.24,2.34,2.84,3.86,2.14a.63.63,0,0,0,.13-1C64.11,345.47,63,345.38,62.36,344.39Z"/><path class="cls-3" d="M243.66,319l.8-.32c.76-.32,5.29-3.49,4.91-4.14-.67-.34-4.94,1.31-6,1.65l-.69.28c-.87.4-5.38,2-5.56,2.3C237.89,319.85,242.38,319.35,243.66,319Z"/><path class="cls-3" d="M220.94,331.81a1.09,1.09,0,0,0-.51,0,1.63,1.63,0,0,0-1,.45,9.28,9.28,0,0,0-.64.72,25.43,25.43,0,0,1-1.91,2.1,16.86,16.86,0,0,1-2.37,2,16.28,16.28,0,0,1-2.82,1.55,11.54,11.54,0,0,1-3.25.87,3.56,3.56,0,0,1-2.7-.43,2.33,2.33,0,0,1-.82-1.93,5.74,5.74,0,0,1,.28-1.62,11.86,11.86,0,0,0,2.71-1.42,22.42,22.42,0,0,0,2.73-2.22,15.54,15.54,0,0,0,2.11-2.46,4,4,0,0,0,.84-2.17,1.77,1.77,0,0,0-.79-1.52,3.24,3.24,0,0,0-2.24-.4,7.82,7.82,0,0,0-4,1.57,14.13,14.13,0,0,0-3.12,3.15,15.77,15.77,0,0,0-2,3.71,9.52,9.52,0,0,0-.71,3.19,5.49,5.49,0,0,0,.33,1.92,3.51,3.51,0,0,0,1,1.52,4.75,4.75,0,0,0,1.87.92,7.2,7.2,0,0,0,2.76.12,17.67,17.67,0,0,0,4.27-1.05,21.76,21.76,0,0,0,3.85-1.86,23.34,23.34,0,0,0,3.27-2.47,19.73,19.73,0,0,0,2.52-2.73,3.76,3.76,0,0,0,.37-.57,1.5,1.5,0,0,0,.12-.61C221.19,332,221.1,331.86,220.94,331.81Zm-15,.53a17.39,17.39,0,0,1,1.2-2.29,13.27,13.27,0,0,1,1.51-2.05,2.64,2.64,0,0,1,1.62-1c.37,0,.61,0,.73.2a1,1,0,0,1,.19.57,2.94,2.94,0,0,1-.59,1.63,11.88,11.88,0,0,1-1.46,1.75,13.4,13.4,0,0,1-1.9,1.6,19.25,19.25,0,0,1-1.89,1.21A9.74,9.74,0,0,1,206,332.34Z"/><path class="cls-3" d="M243.66,325.7l.8-.32c.76-.32,5.29-3.49,4.91-4.14-.67-.34-4.94,1.31-6,1.65l-.69.28c-.87.4-5.38,2-5.56,2.3C237.89,326.58,242.38,326.08,243.66,325.7Z"/><path class="cls-3" d="M244.37,332.08l.79-.32c.77-.32,5.3-3.49,4.92-4.14-.67-.34-4.94,1.31-6,1.65l-.69.28c-.87.4-5.38,2-5.56,2.3C238.6,333,243.09,332.46,244.37,332.08Z"/><path class="cls-3" d="M197.59,313.67c-1,1.13-2,2.28-2.89,3.48a38.82,38.82,0,0,1,2.9-4.17c.07-.09,0-.26-.14-.17-3.61,2.73-5.23,7.47-6.67,11.59-.1.3.36.42.47.13a47.2,47.2,0,0,1,1.93-4.57,45,45,0,0,1,4.66-6C198,313.75,197.75,313.49,197.59,313.67Z"/><path class="cls-3" d="M245.89,335.65l-.69.27c-.87.4-5.38,2-5.56,2.31.73,1.11,5.22.6,6.5.23l.8-.32c.76-.32,5.29-3.49,4.91-4.14C251.18,333.65,246.91,335.31,245.89,335.65Z"/><path class="cls-3" d="M218.11,337.56l-.3.14a.17.17,0,0,0-.16,0l-.14.11-1.2.63c-.91.49-1.81,1-2.71,1.52-.22.14-.07.55.19.44l.06,0h0l.93-.4a1.59,1.59,0,0,0-.21.15c-.11.09,0,.26.14.23a5.7,5.7,0,0,0,2.61-1.76c.23-.12.46-.23.68-.36.37-.22.31-.42.63-.63.05,0,0-.11,0-.08A1.55,1.55,0,0,0,218.11,337.56Z"/><path class="cls-3" d="M272.47,285.8c-.3.42,3,2.91,3.58,3.13l.18.06.39.14c1.15.24,4.49-.05,4.89-1.13-.22-.28-2.29-.28-4.4-.84S272.76,285.4,272.47,285.8Z"/><path class="cls-3" d="M272.47,303.87c-.3.42,3,2.91,3.58,3.13l.18.06.39.14c1.15.24,4.49-.05,4.89-1.13-.22-.27-2.29-.27-4.4-.83S272.76,303.47,272.47,303.87Z"/><path class="cls-3" d="M197.29,331.18a2.61,2.61,0,0,0-.63,0,6.87,6.87,0,0,0-.83.13l-.84.21c-.43.09-.87.16-1.3.22s-.88.1-1.35.13c-.32,0-.73.05-1.22.07l-1.49,0c-.5,0-1,0-1.46,0a7.38,7.38,0,0,1-1.14-.12,44.74,44.74,0,0,1,2.65-8.09,69.72,69.72,0,0,1,4-7.83c.46-.77,1-1.53,1.49-2.29s1-1.54,1.48-2.3a4.21,4.21,0,0,0,.36-.65,2.1,2.1,0,0,0,.14-.72,1.17,1.17,0,0,0-.3-.78,1.27,1.27,0,0,0-1.05-.28,5.15,5.15,0,0,0-1.09.18,10.85,10.85,0,0,0-1.19.37,9.5,9.5,0,0,0-1.11.49,5.25,5.25,0,0,0-.85.53,3.45,3.45,0,0,0-.69.8c-.19.29-.38.58-.54.87a73.71,73.71,0,0,0-3.56,7.73,67.87,67.87,0,0,0-2.54,7.74,61.46,61.46,0,0,0-1.52,7.85,63.27,63.27,0,0,0-.51,8.05c0,.36,0,.85,0,1.49s.07,1.3.16,2a21,21,0,0,0,.41,2.13,7.12,7.12,0,0,0,.79,2,4,4,0,0,0,1.3,1.38,3,3,0,0,0,1.92.41,8,8,0,0,0,4.3-1.53,10.64,10.64,0,0,0,2.73-3.08,12.14,12.14,0,0,0,1.44-3.66,16.24,16.24,0,0,0,.41-3.31,15.14,15.14,0,0,0-.17-2,12.08,12.08,0,0,0-.54-2.17,8.68,8.68,0,0,0-1-2,5,5,0,0,0-1.68-1.53l1.62-.1a10,10,0,0,0,1.73-.24,4.1,4.1,0,0,0,1.39-.58,1.32,1.32,0,0,0,.57-1.12A.32.32,0,0,0,197.29,331.18Zm-5.49,11.57a13,13,0,0,1-.09,1.53,11,11,0,0,1-.3,1.54,12.87,12.87,0,0,1-.46,1.43,10.74,10.74,0,0,1-.89,1.8,6.91,6.91,0,0,1-1.3,1.59,2.92,2.92,0,0,1-1.73.77,1.26,1.26,0,0,1-1.21-.67,5.53,5.53,0,0,1-.71-1.71,11.18,11.18,0,0,1-.3-1.93c0-.63-.05-1.09-.05-1.38a34.68,34.68,0,0,1,.44-5.47c.29-1.83.63-3.64,1-5.48a7.93,7.93,0,0,1,2.63,1.33,7.47,7.47,0,0,1,1.7,1.91,7.93,7.93,0,0,1,.95,2.27,9.73,9.73,0,0,1,.3,2.36Z"/><path class="cls-3" d="M322.16,252.46a67.37,67.37,0,0,0-8.74-6.1.59.59,0,0,0-.14-.22l0,0a.92.92,0,0,1-.71-1.39l0,0a1.58,1.58,0,0,1,.13-.56l.6-.11a2.79,2.79,0,0,1,1.26-.4l.12-.16a11.1,11.1,0,0,0,2.28-.6c1.79-.7,3.81-2,4-4.11.28-3-3.3-3.44-4.13-2.12a.77.77,0,0,0,0,1.31c.1.08.31,0,.25-.15a3.88,3.88,0,0,1,.58-.68,1.46,1.46,0,0,1,1.12.37,9.68,9.68,0,0,1,.3,2.64l-1.08,1a7.85,7.85,0,0,1-1.84.9c-.32.09-.64.16-.94.22l-.15,0a13,13,0,0,0-3.73.24l-.14,0a7.87,7.87,0,0,0-1.58,1.89,1.51,1.51,0,0,0,.48,2.22,71.06,71.06,0,0,1,11.15,7.58c3.66,3.22,5.92,6.71,1.46,8.51-5.35,2.15-12.66,1.57-19.28,1-7.68-.61-14.49-1.15-17.1,2.66h0a31.21,31.21,0,0,0-6,8.26,19.89,19.89,0,0,0-1.84,6.17c-1.87-.91-4.41-2.46-7.3-4.22-10.41-6.34-25.19-15.35-32.1-8.41a3.49,3.49,0,0,0-.91,1.5.54.54,0,0,0-.09.43c0,.1,0,.2,0,.3a.27.27,0,0,0-.12.23c.18,8.29.26,16.81-3.11,24.53-24.85,3-66.19,4.43-72.61,4.42-24.52,0-49.9-4.05-72.89-5.93v0H89c.18-7.48,2-14.62,3.73-21.89,0-.12.08-.24.1-.35l0-.23.12-.5a.14.14,0,0,0-.08-.17,3.31,3.31,0,0,0-1-2.31c-6.91-6.94-21.68,2.07-32.1,8.41-2.88,1.76-5.42,3.31-7.3,4.22a19.36,19.36,0,0,0-1.84-6.17,31.45,31.45,0,0,0-6-8.26h0c-2.62-3.81-9.43-3.27-17.1-2.66-6.63.53-13.94,1.11-19.29-1-4.46-1.8-2.2-5.29,1.46-8.51a73.11,73.11,0,0,1,11.48-7.76,2.29,2.29,0,0,0,1.36-1.6,1.56,1.56,0,0,0-.74-1.47,4.55,4.55,0,0,0-1.29-.6,12.47,12.47,0,0,0-2.91-.5,3.06,3.06,0,0,1-1.93-1.56,4.72,4.72,0,0,1-.58-1.9c.84-2.47,1.91-2.64,3.21-.53a1.86,1.86,0,0,1-.1.2c-.11.17.12.33.27.22a.18.18,0,0,0,.21,0,1.45,1.45,0,0,0,.07-2.31,1.7,1.7,0,0,0-.34-.23l-.14-.13a2.54,2.54,0,0,0-3.31.75,2,2,0,0,0-.16.24h0a6.17,6.17,0,0,0-.65,5,2.54,2.54,0,0,0,2.38,1.7l0,0h0l.1.14a11.93,11.93,0,0,1,3.29.64l.2.07c0,.1-.07.21-.11.32a75.9,75.9,0,0,0-11.17,7.52,24.22,24.22,0,0,0-7.34,8.32,14.76,14.76,0,0,0-1.5,8.08c1.72,17.28,15.57,20.06,27.79,22.51,2.88.57,5.67,1.13,8.12,1.85a16.12,16.12,0,0,1,5,2.35,13.2,13.2,0,0,1,3.74,4.24,43.67,43.67,0,0,1-.19,8.07c-1,4,.09,5.81,2.38,6.36,2.72.65,7.29-1.05,12.17-2.87,7.05-2.62,14.8-5.5,16.89-1.39.4,9.48.27,20.15-2.91,28.31-.34.89.44,2.1,1.62,3.3a36,36,0,0,0,3.75,3.21h0c.39.29.73.52,1,.67a1.75,1.75,0,0,0,.52.25h0a1.49,1.49,0,0,0,.56,0C109.4,354,140,359,167.67,359.1c21.42.1,73-2.89,88.72-17.51,1.19-1.2,2-2.41,1.62-3.3-3.18-8.16-3.31-18.83-2.91-28.31,2.09-4.11,9.84-1.23,16.89,1.39,4.88,1.82,9.45,3.52,12.18,2.87,2.28-.55,3.32-2.38,2.37-6.36a44.65,44.65,0,0,1-.19-8.07,13.2,13.2,0,0,1,3.74-4.24,16.22,16.22,0,0,1,5-2.35c2.45-.72,5.24-1.28,8.12-1.85,12.22-2.45,26.07-5.23,27.79-22.51a14.67,14.67,0,0,0-1.5-8.08A24.28,24.28,0,0,0,322.16,252.46Zm-36.73,16.13a6.43,6.43,0,0,0-.16,1.94,19.45,19.45,0,0,0-3,3.11A23.53,23.53,0,0,1,285.43,268.59Zm-3.69,6.27c1.15-1.36,2.33-2.67,3.55-4a9.46,9.46,0,0,0,.23,1.18,27.17,27.17,0,0,0-4.68,5.13C281.1,276.41,281.41,275.62,281.74,274.86Zm-1.1,3a60.67,60.67,0,0,1,5-5.41c.11.36.25.71.39,1.07a34,34,0,0,0-4.22,4.26c-.45.51-1,1.07-1.54,1.69A16.36,16.36,0,0,1,280.64,277.84Zm-.56,2.76c1.78-2.5,4.1-4.48,6-6.86.13.3.28.58.43.87a44.55,44.55,0,0,0-3.45,4.06c-.82,1-1.67,2-2.46,3l-.58-.21Q280.05,281,280.08,280.6Zm7.53,1c-.38.35-.83.71-1.24,1.09a6.32,6.32,0,0,1-.77.06l-.29,0c.53-.51,1-1.1,1.51-1.64l2.06-2.25a5.69,5.69,0,0,1,.48,1.19C288.77,280.57,288.18,281.09,287.61,281.62Zm1.81-1.12a1,1,0,0,1-.1.54c-.15.17-.29.34-.42.52a3.83,3.83,0,0,1-1.48.93c.18-.19.35-.37.52-.53C288.44,281.48,288.93,281,289.42,280.5Zm-2.83.39c-.58.59-1.23,1.18-1.76,1.84l-.84-.12h0c.79-.9,1.4-1.94,2.14-2.89a26.08,26.08,0,0,1,2-2.23c.23.4.45.78.64,1.14Zm-2.69,1.66s0,0,0,.05c-.45-.08-.91-.18-1.39-.31.9-1,1.62-2.14,2.44-3.19s1.57-2,2.37-3l.51.89.15.26A15.91,15.91,0,0,0,283.9,282.55Zm-1.64-.34c-.39-.11-.77-.23-1.17-.37.92-1.08,1.78-2.24,2.67-3.35a41.12,41.12,0,0,0,2.86-3.71c.2.39.4.77.61,1.14A32.76,32.76,0,0,0,282.26,282.21Zm-32.48-13.78a5.53,5.53,0,0,0-3.55,1.47l1.08-2A17.36,17.36,0,0,1,249.78,268.43Zm-3.87-.69.86.06a18.23,18.23,0,0,0-3.23,7.72c-.21-.2-.4-.38-.59-.58A56.94,56.94,0,0,0,245.91,267.74Zm1.69,14.11c.69.66,1.36,1.31,2,1.95a20.23,20.23,0,0,1-1.92,9.33l-1.52.33A25.81,25.81,0,0,0,247.6,281.85Zm2.43,2.41c.57.59,1.09,1.16,1.55,1.72a22.62,22.62,0,0,1-.68,3c-.4,1.28-1.05,2.44-1.53,3.68-.31.09-.63.18-1,.26A16.22,16.22,0,0,0,250,284.26Zm1.18,7.86c-.42.15-.88.31-1.39.46a12.67,12.67,0,0,0,2.09-6.19q.41.53.75,1C252.26,289,251.54,290.53,251.21,292.12Zm1.68-4.34a4.89,4.89,0,0,1,.88,2.43c0,.62-.77,1.2-2.15,1.75A13.42,13.42,0,0,0,252.89,287.78ZM240.46,275.1q.58.6,1.23,1.23a82.37,82.37,0,0,1-.39,8.73,86.8,86.8,0,0,1-2.18,9.58l-1.78.24A49.67,49.67,0,0,0,240.46,275.1Zm1.68,1.66c.43.42.88.84,1.33,1.26a53.67,53.67,0,0,1-.26,7.81c-.35,2.79-1.26,5.38-1.83,8.11,0,.15.18.26.26.11,2.24-4.45,2.82-10.66,2.21-15.67l1.12,1,.21.2A28.89,28.89,0,0,1,243.37,294q-1.81.31-3.87.6A37,37,0,0,0,242.14,276.76Zm3.34,3.12,1.78,1.66c.32,4.33-.82,8-1.8,12.06l-1.61.3A24.25,24.25,0,0,0,245.48,279.88Zm.76-1.84c-.79-.73-1.56-1.44-2.29-2.13.28-.78.51-1.57.75-2.37a9.81,9.81,0,0,0,2.62,5.49Zm-.68-10.29a28.26,28.26,0,0,0-2.91,6.91c-.3-.29-.57-.58-.84-.86a24.18,24.18,0,0,0,1.43-3.2c.4-.93.81-1.86,1.23-2.78A7.68,7.68,0,0,1,245.56,267.75Zm-1.46.12a22.73,22.73,0,0,0-2.58,5.64c-.15-.16-.29-.33-.42-.49.3-.71.54-1.45.83-2.12.4-.93.82-1.84,1.19-2.78A8.28,8.28,0,0,1,244.1,267.87Zm-3.25,1.65a5.82,5.82,0,0,1,1.78-1.2c-.52,1-1,2-1.41,3-.17.38-.36.78-.53,1.18a4.16,4.16,0,0,1-.64-1.41C239.94,270.48,240.42,270,240.85,269.52Zm-2.17,3.17a9,9,0,0,0,1.46,2.07A63.3,63.3,0,0,1,237,294.93l-1.32.17C238.62,288,238.82,280.31,238.68,272.69ZM88.38,293.6l-1.67-.12a89.52,89.52,0,0,1,3.76-18.25l.39-.4a10.38,10.38,0,0,0,.87-1.06A74.09,74.09,0,0,0,88.38,293.6Zm-8.24-.86A6.64,6.64,0,0,1,78.4,292c.69-2.38,1.26-4.81,2.11-7.16.62-.67,1.3-1.36,2-2.06A22.1,22.1,0,0,0,80.14,292.74Zm-2.3-1.23a1.85,1.85,0,0,1-.55-1.3c0-1.29,1-2.92,2.6-4.7A38.92,38.92,0,0,0,77.84,291.51Zm5.33-9.38c.89-.84,1.81-1.7,2.73-2.54a33.41,33.41,0,0,0-3.07,13.62l-1.07-.08c-.42-.08-.8-.16-1.16-.25C81.21,289.1,81.65,285.68,83.17,282.13Zm3.13-2.8a.11.11,0,0,0,0-.11l2-1.82a38.75,38.75,0,0,0-3.87,15.92l-1-.08C83.88,288.43,84.29,283.82,86.3,279.33Zm2.43-2.39c.46-.44.93-.88,1.36-1.32a51.45,51.45,0,0,0-4,17.82L85,293.36A50,50,0,0,1,88.73,276.94ZM91,271.05a5.39,5.39,0,0,1-1.5,2.5c-1.07,1.13-2.42,2.4-3.84,3.7l.29-.51a.3.3,0,0,0,.21-.09c.94-1,1.73-2.21,2.64-3.28.72-.84,1.48-1.65,2.19-2.49A.47.47,0,0,1,91,271.05Zm-.8-1.53a3.12,3.12,0,0,1,.7.93,24.38,24.38,0,0,0-4,4.13,6.64,6.64,0,0,0,.18-1.1c.28-.37.54-.76.8-1.11.72-1,1.4-1.94,2-3,.09-.14-.12-.26-.22-.13-.72.94-1.44,1.88-2.17,2.8l-.46.54a5.73,5.73,0,0,0-.19-1c.23-.36.42-.76.62-1.12.35-.62.68-1.26,1-1.89a.13.13,0,0,0-.23-.13c-.39.61-.78,1.21-1.16,1.82-.15.23-.32.48-.47.73a5.67,5.67,0,0,0-.49-.95,7,7,0,0,0,.34-.86c.17-.46.33-.93.5-1.39A5.92,5.92,0,0,1,90.21,269.52Zm-5-.83c.07-.32.13-.64.17-1a8.14,8.14,0,0,1,1.32.08c-.17.39-.34.77-.5,1.16s-.24.52-.34.79a5.25,5.25,0,0,0-.7-.78A2.5,2.5,0,0,1,85.22,268.69Zm-.32-.94c-.06.29-.12.58-.19.87a5.29,5.29,0,0,0-1.33-.7A13.59,13.59,0,0,1,84.9,267.75ZM51,281.47c-.51.2-1,.36-1.48.52A23.17,23.17,0,0,0,50,276.6,14.24,14.24,0,0,1,51,281.47Zm-1.3-5.67c-.18,2.12-.63,4.25-.78,6.37-.45.13-.89.25-1.31.34a27.51,27.51,0,0,0,.81-9.51C48.88,273.87,49.32,274.82,49.71,275.8Zm-3.26-6.17A29.86,29.86,0,0,1,48,272.22c-.14,3.48-.56,6.88-.81,10.36l-.79.12A45.43,45.43,0,0,0,46.45,269.63Zm-1.12,3.14a7.51,7.51,0,0,0,.31-4.18,5.51,5.51,0,0,1,.56.68,84.14,84.14,0,0,1-.28,13.47l-.46,0-.26,0C45.42,279.44,45.35,276.09,45.33,272.77Zm-3.26,21.28a17.86,17.86,0,0,0-5.56-2.62c-2.57-.76-5.38-.26-8.28-.84-11.58-2.32-24.71-6-26.3-21.92a12.81,12.81,0,0,1,1.32-7.06c.14-.27.28-.55.44-.82.27,1.41,1.45,2.67,3.91,3.65,5.76,2.32,13.65,1,20.48.47,7.33-.58,14.86-.39,16.66,2.85a3.74,3.74,0,0,1,0,3.46c1.24-5.34-5.41-5.7-11.15-5.7,4.82,1.55,11.92.71,9.72,8.09h0c-.59.85-1.21,1.68-1.67,2.46-1.39,2.35-2.57,4.36-1.34,6.1a6.41,6.41,0,0,0,.44.56c1.61,2.14,2.62,5.61,3.23,9.3.24,1.4.41,2.83.54,4.22A15,15,0,0,0,42.07,294.05Zm2.68-11.34a4.54,4.54,0,0,1-1.06-.23c.32-2.35.35-4.79.48-7.14.27-.49.52-1,.74-1.5C44.79,276.8,44.66,279.77,44.75,282.71Zm-2-5,.41-.69.59-1c-.23,2.07-.51,4.19-.57,6.28a4.69,4.69,0,0,1-.67-.42c0-.4.07-.8.1-1.19,0-.54.07-1.07.09-1.61,0-.31,0-.62,0-.93A.41.41,0,0,0,42.8,277.71Zm-.67,1.6c0,.65-.11,1.33-.16,2l-.22-.27c-.28-.46-.06-1.19.38-2.08C42.13,279.09,42.14,279.21,42.13,279.31Zm33.49,9.58a4.27,4.27,0,0,0-.2,1.14c-.41,3-.14,7.55.17,12.84.08,1.35.16,2.74.23,4.18-3.79-2.49-10.87.14-17.4,2.57-4.6,1.71-8.91,3.31-11.09,2.79-1.15-.27-1.62-1.44-1-4.1.34-1.41.64-9.39-.56-16.59a32.16,32.16,0,0,0-2-7.24,8.13,8.13,0,0,0,1.66.16A18.82,18.82,0,0,0,52.31,283c2.06-.85,5-1.23,8.46-3.33,6.59-4,14.87-9.79,21.4-11.45a5.29,5.29,0,0,1,2.34,1.17,1.4,1.4,0,0,0,0,.61.16.16,0,0,0,.26.07,1,1,0,0,0,.19-.27A5.29,5.29,0,0,1,86.17,272h0a.15.15,0,0,0,0,.13,5.4,5.4,0,0,1,.15,1.28,4.75,4.75,0,0,0-.62,1c0,.13.07.31.21.21a2.88,2.88,0,0,0,.33-.28,6.28,6.28,0,0,1-.68,2c-.45.81-.94,1.61-1.45,2.4-2.86,2.63-5.72,5.34-7.36,7.84A4.54,4.54,0,0,0,75.62,288.89ZM256.27,339a13.19,13.19,0,0,1-1.21,1.31c-14.58,14.82-68.19,17-87.39,17-28.36-.14-59.92-6.36-89.55-15A28.1,28.1,0,0,1,76,340.28,11.15,11.15,0,0,1,74.8,339c4.15-10.67,3.3-25.17,2.65-36.2-.21-3.68-.4-7-.4-9.51a4.73,4.73,0,0,0,.44.28c0,.21-.06.43-.08.64s.24.18.29,0,.1-.32.15-.47a14.13,14.13,0,0,0,4,1.24h0q3.26.6,6.53,1.14a.19.19,0,0,1,0,.08c0,.37.58.38.58,0,23.65,3.86,48.41,5.22,73.31,5.25,10.3.84,84.33,1.25,91.69-8.22,0,2.55-.19,5.83-.4,9.51C253,313.8,252.11,328.3,256.27,339Zm29-47.25c-1.2,7.2-.91,15.18-.57,16.59.63,2.66.17,3.83-1,4.1-2.19.52-6.5-1.08-11.1-2.79-6.53-2.43-13.61-5.06-17.4-2.57.07-1.44.16-2.83.24-4.18.31-5.29.57-9.81.17-12.84a4.74,4.74,0,0,0-.21-1.14,4.47,4.47,0,0,0-1.16-2.38,34.88,34.88,0,0,0-5-5.66,7.52,7.52,0,0,0,1.56.94c.32.14.61-.3.28-.48a12.82,12.82,0,0,1-5.06-5.83c-2.07-4.2,1.74-7,5.35-6.51.94.35,1.91.77,2.89,1.23h0l0,0c5.32,2.51,11.11,6.43,16,9.4,3.44,2.1,6.39,2.48,8.45,3.33a18.82,18.82,0,0,0,6.85,1.68,8.06,8.06,0,0,0,1.66-.16A32.16,32.16,0,0,0,285.29,291.72Zm43.84-23.05c-1.58,15.91-14.71,19.6-26.29,21.92-2.9.58-5.71.08-8.29.84a17.8,17.8,0,0,0-5.55,2.62,14.63,14.63,0,0,0-2.41,2.2c.13-1.39.31-2.82.54-4.22.62-3.69,1.63-7.16,3.23-9.3a6.47,6.47,0,0,0,.45-.56c1.23-1.74,0-3.75-1.35-6.1-.46-.78-1.08-1.61-1.67-2.46h0c-2.2-7.38,4.91-6.54,9.72-8.09-5.74,0-12.39.36-11.15,5.7a3.72,3.72,0,0,1,0-3.46c1.8-3.24,9.33-3.43,16.65-2.85,6.83.54,14.72,1.85,20.49-.47,2.45-1,3.63-2.24,3.9-3.65.16.27.31.55.44.82A12.81,12.81,0,0,1,329.13,268.67Z"/><path class="cls-3" d="M272.47,290.41c-.3.41,3,2.9,3.58,3.12l.18.07.39.13c1.15.25,4.49,0,4.89-1.12-.22-.28-2.29-.28-4.4-.84S272.76,290,272.47,290.41Z"/><path class="cls-3" d="M272.47,295c-.3.41,3,2.9,3.58,3.12l.18.07.39.13c1.15.24,4.49,0,4.89-1.13-.22-.27-2.29-.27-4.4-.83S272.76,294.61,272.47,295Z"/><path class="cls-3" d="M272.47,299.27c-.3.41,3,2.9,3.58,3.12l.18.07.39.13c1.15.25,4.49,0,4.89-1.12-.22-.28-2.29-.28-4.4-.84S272.76,298.87,272.47,299.27Z"/><path class="cls-3" d="M178.4,332.4a2.52,2.52,0,0,0-.62,0,5.68,5.68,0,0,0-.84.09c-.27,0-.55.11-.84.16s-.87.13-1.3.18-.88.07-1.35.08h-1.21l-1.5,0c-.5,0-1,0-1.46-.08a6.49,6.49,0,0,1-1.13-.17,43.38,43.38,0,0,1,2.65-8.08,70,70,0,0,1,4-7.79c.46-.76,1-1.52,1.5-2.27s1-1.53,1.48-2.29a3.41,3.41,0,0,0,.35-.65,1.89,1.89,0,0,0,.14-.72,1.2,1.2,0,0,0-.3-.81,1.27,1.27,0,0,0-1.05-.32,4.51,4.51,0,0,0-1.09.15,11.18,11.18,0,0,0-1.19.33,10.39,10.39,0,0,0-1.1.47,4.87,4.87,0,0,0-.85.51,2.85,2.85,0,0,0-.7.78c-.18.29-.39.57-.55.87a71.52,71.52,0,0,0-3.55,7.7,68.76,68.76,0,0,0-2.54,7.71,61.28,61.28,0,0,0-1.52,7.86,65.44,65.44,0,0,0-.51,8.09c0,.36,0,.87,0,1.51s.07,1.31.16,2a15.73,15.73,0,0,0,.41,2.18,7.92,7.92,0,0,0,.78,2,4.51,4.51,0,0,0,1.3,1.47,3,3,0,0,0,1.92.53,7.59,7.59,0,0,0,4.31-1.3,9.66,9.66,0,0,0,2.72-3A12,12,0,0,0,176.4,346a15.68,15.68,0,0,0,.4-3.35,14.14,14.14,0,0,0-.16-2.05,12.16,12.16,0,0,0-.54-2.24,9.44,9.44,0,0,0-1-2.09,5.38,5.38,0,0,0-1.67-1.62l1.62,0a10.46,10.46,0,0,0,1.73-.17,3.72,3.72,0,0,0,1.38-.53,1.26,1.26,0,0,0,.57-1.11A.34.34,0,0,0,178.4,332.4Zm-5.49,11.51c0,.52,0,1-.08,1.54a12.44,12.44,0,0,1-.3,1.55,12.67,12.67,0,0,1-.47,1.42,9.86,9.86,0,0,1-.89,1.78,6.36,6.36,0,0,1-1.3,1.53,2.72,2.72,0,0,1-1.72.68,1.36,1.36,0,0,1-1.22-.74,6.42,6.42,0,0,1-.71-1.78,11.66,11.66,0,0,1-.3-2c0-.64,0-1.11,0-1.39a35.22,35.22,0,0,1,.44-5.52q.42-2.73,1-5.48A8.1,8.1,0,0,1,170,337a8.32,8.32,0,0,1,1.71,2,8.89,8.89,0,0,1,.94,2.36,10.25,10.25,0,0,1,.3,2.41Z"/><path class="cls-3" d="M243.66,306.92l.8-.32c.76-.32,5.29-3.49,4.91-4.14-.67-.34-4.94,1.31-6,1.65l-.69.28c-.87.4-5.38,2-5.56,2.3C237.89,307.8,242.38,307.3,243.66,306.92Z"/><path class="cls-3" d="M178.4,313.71c-.18.28-.35.57-.52.86a28.65,28.65,0,0,0-5.76,10.62c-.3.62-.61,1.24-.9,1.86-.12.25.24.47.38.22,1.21-2.22,2.34-4.48,3.52-6.7.6-1.12,1.19-2.23,1.8-3.34a33.49,33.49,0,0,0,1.84-2.89s.05,0,.05,0c0-.41.06-.23-.08-.59A.18.18,0,0,0,178.4,313.71Z"/><path class="cls-3" d="M168.82,339.06l-.21-.21a.31.31,0,0,0-.4,0,.71.71,0,0,0-.61.33,6,6,0,0,0-.76,2.46,8.18,8.18,0,0,0-.32,1.13.32.32,0,0,0,.13.34,15.08,15.08,0,0,0,0,2.23c0,.21.33.28.38.05.42-1.65.92-3.34,1.18-5l1.88,1.17c.33.21.64-.24.4-.52A11.51,11.51,0,0,0,168.82,339.06Z"/><path class="cls-3" d="M159.53,338.52c-1.13,2.76-3.82,5.94-7,6.18a.33.33,0,0,0,0,.65c3.16.12,5.46-2.36,6.79-5a.12.12,0,0,0-.12-.18,11,11,0,0,0,.65-1.58C159.88,338.41,159.6,338.34,159.53,338.52Z"/><path class="cls-3" d="M187.89,337.82a.25.25,0,0,0-.39.05,6.79,6.79,0,0,0-.62,2.86,2.36,2.36,0,0,0,.06,1,.17.17,0,0,0,.3,0,3.48,3.48,0,0,0,.43-1.38c.09-.4.21-.8.34-1.2a1.38,1.38,0,0,1,.41.62.31.31,0,0,0,.59-.16A3.79,3.79,0,0,0,187.89,337.82Z"/><path class="cls-3" d="M177.17,349.15a6.56,6.56,0,0,1-.82,1.63c-.32.46-.77.8-1.07,1.27,0,.07,0,.17.1.14,1.12-.39,1.81-1.9,2-3A.13.13,0,0,0,177.17,349.15Z"/><path class="cls-3" d="M178.44,335.94c.23-.13.08-.52-.18-.43a16.33,16.33,0,0,0-1.56.62.31.31,0,0,0-.11.42,9.49,9.49,0,0,1,1.2,3.69,28.44,28.44,0,0,1-.12,3.46.17.17,0,0,0,.31.09,6.81,6.81,0,0,0,.4-4.14,9.46,9.46,0,0,0-.56-2C177.34,336.46,177.27,336.61,178.44,335.94Z"/><path class="cls-3" d="M207.45,336.29a18.18,18.18,0,0,0,1.9-1,5.6,5.6,0,0,0,3-2.4,7.77,7.77,0,0,0,.86-1c.15-.2-.15-.38-.31-.25a19.88,19.88,0,0,1-5.3,3.49.25.25,0,0,0,0,.46l-.37.18A.27.27,0,1,0,207.45,336.29Z"/><path class="cls-3" d="M194.13,350.51q-1.9,1.1-3.9,2c-.23.1-.06.43.16.38a5.5,5.5,0,0,0,3.22-1.6.11.11,0,0,0,0-.17l.68-.41C194.37,350.63,194.26,350.44,194.13,350.51Z"/><path class="cls-3" d="M197.19,334.14a3,3,0,0,0-1.91.25s0,0,0,0l-.22,0a.31.31,0,0,0-.18.46,13.44,13.44,0,0,1,1,1.92,9,9,0,0,0,.68,1.6.16.16,0,0,0,.3-.08,6.48,6.48,0,0,0-1.19-3.34,5.24,5.24,0,0,1,.69,0,.28.28,0,0,0,.29-.35l.52-.08C197.36,334.55,197.45,334.2,197.19,334.14Z"/><path class="cls-3" d="M213.44,330a3,3,0,0,0,1.29-1.5,2,2,0,0,0,0-1.83.16.16,0,0,0-.28,0,4.94,4.94,0,0,0-.12.93s-.06,0-.09,0c-.5.55-.67,1.34-1.17,1.92C212.91,329.78,213.16,330.15,213.44,330Z"/><path class="cls-3" d="M243.66,312.94l.8-.31c.76-.32,5.29-3.49,4.91-4.15-.67-.34-4.94,1.32-6,1.66l-.69.27c-.87.4-5.38,2-5.56,2.31C237.89,313.82,242.38,313.32,243.66,312.94Z"/><path class="cls-3" d="M29.83,134.13c4-17,12.06-31,22-45.24.14-.2-.2-.47-.36-.27-10.22,13-20,28.71-21.85,45.49A.09.09,0,0,0,29.83,134.13Z"/><path class="cls-3" d="M88.52,47.82c.22-3.27-4-6.19-6.47-3.29a5,5,0,0,0-.33.47,3.94,3.94,0,0,0,0,5.9A4.17,4.17,0,0,0,88.52,47.82Zm-2.7,1a2.32,2.32,0,0,0,.8-1.37,2.16,2.16,0,0,1,0,.44,2.29,2.29,0,0,1-3.57,1.81,2.08,2.08,0,0,1-.79-.87A3,3,0,0,0,85.82,48.78Z"/><path class="cls-3" d="M199,121.41a8.13,8.13,0,0,0,.55-2.55c.13-1,.25-2,.37-3,0-.33-.53-.41-.58-.08-.15,1-.3,2-.43,3a7.94,7.94,0,0,0-.16,2.61A.14.14,0,0,0,199,121.41Z"/><path class="cls-3" d="M156.12,259.19l.76,1.07c40.48-2.27,60.61-12.13,76.75-35.75C217.93,247.49,195.73,257,156.12,259.19Z"/><path class="cls-3" d="M217.4,122.66a6.74,6.74,0,0,0,.85-2.69c.24-1,.46-2.1.64-3.17a.39.39,0,0,0-.76-.2c-.32,1.1-.58,2.22-.85,3.34a6.23,6.23,0,0,0-.34,2.66C217,122.83,217.28,122.82,217.4,122.66Z"/><path class="cls-3" d="M207.63,135.23a3.22,3.22,0,0,0-1.54-.63c-.27-.09-2.08.08-2.12.52s1.16.91,1.54,1.21c.12.09.47.32.45.51,0,0-.05,0-.08,0s-.07-.1-.08-.11,0-.06-.05,0a.93.93,0,0,1-.05.1l0,.06a3.64,3.64,0,0,1-.91,1.2c-.36.34-1.56,1.21-1.6,1.61.23.77,2.12.29,2.61.12a5,5,0,0,0,2.1-1.37,2.19,2.19,0,0,1,.14-.2,3.55,3.55,0,0,0,.32-.68,2.46,2.46,0,0,0,.08-.81,2.2,2.2,0,0,0-.24-.83A2.28,2.28,0,0,0,207.63,135.23Z"/><path class="cls-3" d="M200,135.24a3.8,3.8,0,0,0-.69-.64l-.12-.08a9.88,9.88,0,0,0-2.62-1.09,10.88,10.88,0,0,0-1.13-.26,51,51,0,0,0-10.62-.65,31.53,31.53,0,0,0-4.55.41,8.3,8.3,0,0,0-1.55.36c-.11,0-.94.3-.81.53s.77,0,.9.05c.49,0,1.07,0,1.53,0,1.48.09,3,.17,4.44.29a62.18,62.18,0,0,1,10.07,1.54,8.94,8.94,0,0,1,1,.27,7.34,7.34,0,0,1,1.88.76l.06,0a.51.51,0,0,1,.16.12l.07-.11h0v0c0-.05,0,0,0,0a.28.28,0,0,0,0,.13s0,0,0,0l-.05,0a3.39,3.39,0,0,1-.7.67,13.22,13.22,0,0,1-2.11,1.26,70.39,70.39,0,0,1-8.51,3.55c-.16.07-2.23.78-2.19,1,.21.29,2.17,0,2.46-.06a62.64,62.64,0,0,0,9.14-2.48,17.59,17.59,0,0,0,2.58-1.26,5.34,5.34,0,0,0,1.58-1.45,2.57,2.57,0,0,0,.39-1,2.19,2.19,0,0,0-.08-1.08A2.62,2.62,0,0,0,200,135.24Z"/><path class="cls-3" d="M173,175.79a71.21,71.21,0,0,1,3.31-7.85c1.16-2.29,2.63-4.41,3.77-6.7,0-.06-.05-.13-.1-.07-3.5,3.94-5.82,9.52-7.49,14.48C172.35,176,172.85,176.11,173,175.79Z"/><path class="cls-3" d="M217.49,288.32l-.09.06-.08,0a1.1,1.1,0,0,0,0,2.19l.07,0c1,.41,1.57-.85,1.15-1.62C218.36,288.61,217.94,288.17,217.49,288.32Z"/><path class="cls-3" d="M220.86,288.86a3.62,3.62,0,0,0,.17.56c.92,2.23,3.9,2.69,5,1.13,1.17-.83.69-4.1-1-3.92a.26.26,0,0,0-.09.05.91.91,0,0,0-.42.09c-.43.2-.85.72-.64,1.2a.06.06,0,0,0,.12,0,.87.87,0,0,1,.91-1,.13.13,0,0,0,.12,0c.87,0,1.15,1.18,1.18,1.85q-2.61,3.46-3.95,1.3h0c.16,0,.27-.18.12-.27a3.18,3.18,0,0,1-.94-.87,2.64,2.64,0,0,1-.13-2.31,7.12,7.12,0,0,1,1.63-2.91,26.07,26.07,0,0,0,2.41-2.75,7.09,7.09,0,0,0,.87-5.36,10.19,10.19,0,0,0-.56-3.49c-2.3-6.55-10.43-8.47-16.46-6.38-8.26,2.87-12.31,11-16.8,17.79-3.39,5.12-8.11,9.53-14.68,9.27-1.84-.07-4-.46-5.32-1.91a5,5,0,0,1-.32-5.91,5.63,5.63,0,0,1,4.31-2.33,11.56,11.56,0,0,1,1.39-.08,2.81,2.81,0,0,1,1.73,1.08,1.54,1.54,0,0,1,.18,1.22.91.91,0,0,1-.69.61c-.14.05-.25,0-.39.08a.18.18,0,0,0-.09.08c-.55,0-1.33-.13-.89-.85a.26.26,0,0,0-.23-.38l-.15,0a.09.09,0,0,0-.11-.11.92.92,0,0,0-.73.77.7.7,0,0,0,.32,1.07,2.87,2.87,0,0,0,1.32.51c.62.09,1.8-.06,2.18-.7a1.56,1.56,0,0,0,.9-1.49c0-2.68-4.43-2.73-6.17-2.19a5.74,5.74,0,0,0-4.07,6.4c.51,3,3.25,4.22,6,4.48,9.18.89,14.26-6.49,18.56-13.34a45.54,45.54,0,0,1,6.87-8.7s0,0,0,0c.29-.29.58-.56.88-.83l.17-.14a11.88,11.88,0,0,1,8.06-3,13.78,13.78,0,0,1,2.68.31.3.3,0,0,0,.42.14l0,0a13.36,13.36,0,0,1,3,1.14.88.88,0,0,1,0,.15c-.06.25.24.55.48.37l.23-.17.35.23,0,.06c-.12.3.34.55.55.31h0a10.56,10.56,0,0,1,1.49,1.34.27.27,0,0,0,.21.24,3.47,3.47,0,0,1,.3.37h0c-.14.24.08.43.3.4l.06.08c.07.12.12.24.19.35l-.09.13c-.16.23.15.55.38.4,3.21,6.3-1.92,13-8.77,13-.22,0-.43-.1-.64-.16a4.72,4.72,0,0,1-2.69-2c-1.11-1.88.39-5.11,2.75-3.93a.87.87,0,0,1,.26.49,1,1,0,0,1-.25.79c-.15.15-.29.16-.37.37a.13.13,0,0,0,.07.15c.19.14.4,0,.57-.12.6.32,1.26-.48,1.29-1a1.13,1.13,0,0,0-1.18-1.21,3,3,0,0,0-4.26,2.46,3.72,3.72,0,0,0,.73,2.57,2,2,0,0,0,1.1,1.92,3.88,3.88,0,0,0,2.51.42,9.46,9.46,0,0,0,2.45-.1,11.28,11.28,0,0,0,5.87-2.08,8.18,8.18,0,0,0-.72,1.92A4.37,4.37,0,0,0,220.86,288.86Zm-9.42-22.7a.27.27,0,0,0,0,.33,13.64,13.64,0,0,0-2.4.21,15,15,0,0,1,2.48-.72Zm4.8.18c0-.23-.18-.5-.42-.33l-.63.45c.06-.11.1-.23.16-.35a.31.31,0,0,0,0-.32,11.39,11.39,0,0,1,1.41.2Zm7,7.85a.3.3,0,0,0,.37.05l.3-.2-.37.64c-.17.28.13.52.39.43-.13.17-.25.35-.37.53A8.38,8.38,0,0,0,223.26,274.19ZM226,277.9a6.9,6.9,0,0,1-1.25,3.15c-.08.12-.18.23-.27.34A11.2,11.2,0,0,0,226,277.9Zm-.68-3.7h0a9.27,9.27,0,0,1,.14,1.18.31.31,0,0,0-.37,0l-.11.08c.05-.08.1-.14.14-.22a.3.3,0,0,0-.16-.46Zm-.79,4.11a10.33,10.33,0,0,0,.88-1.34c0,.18-.05.35-.08.53a.18.18,0,0,0-.2.08A19.44,19.44,0,0,1,224,280a.35.35,0,0,0-.16-.2,13,13,0,0,0,.72-1.27A.51.51,0,0,0,224.55,278.31Zm-.38-7.31c-.39.2-.76.4-1.13.62l.81-1.13C224,270.66,224.07,270.83,224.17,271Zm-4.67-3.62-.87.64c.16-.28.34-.54.55-.84s-.19-.63-.45-.45c-.73.52-1.07,1.08-.46-.15a.31.31,0,0,0,0-.19,11,11,0,0,1,2.31,1l0,0c-.25.2-.48.41-.71.62,0-.11.09-.21.13-.32A.33.33,0,0,0,219.5,267.38Zm1.6,3c-.24-.26-.5-.5-.76-.74.79-.64,1.36-1.45.56.19a.18.18,0,0,0,.27.22C222,269.37,221.5,269.91,221.1,270.39Zm1.19.38.34-.63c.12-.22-.13-.52-.36-.36-1.52,1-.43.25.11-.6a.21.21,0,0,0-.28-.28c-1,.65-.53.34-.08-.45a9.92,9.92,0,0,1,1.52,1.59h0C223.06,270.28,222.67,270.52,222.29,270.77Z"/><path class="cls-3" d="M172.88,177.06c2.09.51,4.21.87,6.33,1.2a.23.23,0,0,0,.39.06l.68.11,2.21.32s0,.09-.05.13H183l0-.07.83.12a27.91,27.91,0,0,1,3.86.6l1.2.2s0,0,0,.08l.49.12s0,0,.06-.05l0,0c1.7.33,3.39.71,5.06,1.19a1.29,1.29,0,0,1,.51.1l.4.17.32.1c.33.11.67.22,1,.35l-.07.13c.2.09.38.19.57.29l.11-.2c.44.17.89.36,1.33.55l0,.06q.34.1.69.24h0l0,0a13.08,13.08,0,0,1,3.51,2c.23.15.48.29.7.45l0,.12a5.14,5.14,0,0,1,.4.41l.2.09a.58.58,0,0,1,.05-.14c.2.16.39.33.58.5l0,0a3.87,3.87,0,0,1,.49.43v0a12.1,12.1,0,0,1,3.07,4.58.8.8,0,0,1,.24.38,5.68,5.68,0,0,1,.22,1.24c0,.32.11.64.14,1a10.69,10.69,0,0,1,0,1.79c-.09.18-.18.37-.28.55s0,.46,0,.69a1,1,0,0,1-.07.25.42.42,0,0,0,.15,0c-1.06,4.83-5.09,9-8.44,12.29a.36.36,0,0,0,.07.56,6.08,6.08,0,0,1,1.72,1.58.73.73,0,0,1,.78.66,1.9,1.9,0,0,1,0,.25h0s0,0,0,0a2.52,2.52,0,0,1,0,.55,6.06,6.06,0,0,1-.43,5.17.37.37,0,0,0,.41.54,3.79,3.79,0,0,1,3.05.88l-.17.31a1,1,0,0,1,.53.21l.07-.12a5.66,5.66,0,0,1,1.39,2.61,2.79,2.79,0,0,1,.07.4.33.33,0,0,0,.05.39,8.54,8.54,0,0,1-1.7,5.19c-1.64,2.46-4.36,4.3-5.56,7a5.29,5.29,0,0,0-.46,2l-.06.06a1.17,1.17,0,0,1,0,.32l.08-.06a3.52,3.52,0,0,0,2.69,3.3c0,.11.14.19.22.08l0,0a2.5,2.5,0,0,0,2-.68c.22-.2-.08-.6-.32-.42a1.92,1.92,0,0,1-1.13.4c8.18-11.11,16.36-22.2,24.9-33,6.9-8.76,13.82-17.55,19.82-27-.77,2.23-1.61,4.45-2.46,6.66a.19.19,0,0,0-.29.07c-10.69,19.77-25.77,37-39.69,54.51l0-.07a.44.44,0,0,0-.49-.2l-.17,0a17.94,17.94,0,0,0,3.27-3.52q3-3.62,6-7.3,5.47-6.86,10.65-13.94c7.45-10.21,14.23-20.85,21.15-31.42.07-.12-.11-.22-.19-.11-6.61,9.64-13.09,19.4-19.91,28.89q-5.2,7.25-10.72,14.24c-1.76,2.23-3.53,4.43-5.33,6.61s-4.1,6.2-6.91,6.65c-.43.07-.24.71.18.65h0a.36.36,0,0,0,.39.29c1.56-.2,1.68.63,3,.88a5.17,5.17,0,0,0,3.08-.61c3.51-1.67,6.81-4.65,9.59-7.32a80.47,80.47,0,0,0,15.31-21.09c4.41-8.4,7.88-17.29,11.37-26.1,1.31-3.31,2.59-6.66,3.71-10.06a7.2,7.2,0,0,1,.83-2.6,68.08,68.08,0,0,0,2.84-14.27l0-.1a6.35,6.35,0,0,1,.07-1.63c.2-4.32-.14-9-1.92-12.93a4.34,4.34,0,0,0-1.05-1.57.27.27,0,0,0-.26-.31.13.13,0,0,0-.19-.12l-.2.09-.25,0a1.21,1.21,0,0,0-1.33.8,100.33,100.33,0,0,1-27.35,7.71c0-.1-.15-.16-.21,0a.36.36,0,0,0,0,.09c-1.6.24-3.2.46-4.8.65-1.39.16-2.78.3-4.19.43a.12.12,0,0,0-.24,0l0,0c-9.5.84-19.25,1.08-28.23,4.44a33,33,0,0,0-11.15,6.66c-2.21,2.07-5.95,6.23-3.49,9.4C169.66,176.32,171.41,176.7,172.88,177.06Zm54,48.81a67.24,67.24,0,0,1-8.34,9.5c2.9-3.68,5.53-7.64,8.18-11.46,3.54-5.1,6.93-10.29,10.11-15.63.08-.13-.12-.24-.2-.12-3.33,5.05-6.69,10.1-10.14,15.07s-7.16,9.49-10.45,14.41c-2.5,2.14-6.32,5.09-8.59,5.11,6.29-5.63,11.53-12.43,16.51-19.2,5.24-7.13,10.43-14.26,15.76-21.31C236.12,210.48,232.13,218.59,226.83,225.87Zm13-24.06a.2.2,0,0,0-.31-.06c-5.57,6.43-10.27,13.65-15.28,20.51a177.91,177.91,0,0,1-17.19,20.47,1.57,1.57,0,0,1-.8-.34c13.63-17.14,28.55-34,38.93-53.41C243.49,193.3,241.67,197.58,239.85,201.81ZM206.29,219.1a5.07,5.07,0,0,0-1.37-.75c.83-2.32,2.41-4.48,3.63-6.6s2.53-4.42,3.89-6.57c2.61-4.15,5.65-7.9,7.8-12.34a137.48,137.48,0,0,1,14-23.38,127.2,127.2,0,0,1-8.37,16.35C219,196.74,212.52,207.8,206.29,219.1Zm46.55-65.2a38.48,38.48,0,0,1,.06,7.2q-.08.94-.18,1.89c-2.56,7.47-4.5,15.18-8.37,22.12a.08.08,0,0,0,.12.09c2.84-2.81,3.85-7.18,5.09-10.85.94-2.8,1.89-5.61,2.74-8.45a77.36,77.36,0,0,1-2.23,9.4c-.36,1.19-.74,2.39-1.14,3.57-6.52,10.52-14.19,20.23-21.83,30-8.19,10.42-16.07,21.07-23.8,31.83a2.79,2.79,0,0,1-1.7-.88c2.69-3.07,4.89-6.5,7.26-9.82,2.72-3.82,5.63-7.5,8.59-11.14,5.5-6.76,11.21-13.36,16.33-20.43,9.77-13.47,17-29.39,18.83-46.06C252.7,152.85,252.79,153.37,252.84,153.9Zm-12.19-4.72a80.52,80.52,0,0,0,7.67-3.12,1.64,1.64,0,0,0,0,.22.21.21,0,1,0,.42,0,4.07,4.07,0,0,1,1.07-.17c-1.7,5.66-3.19,11.38-5.1,17-.25.53-.49,1.07-.72,1.61,0,0,.05.06.07,0,.09-.23.2-.44.31-.66-.17.48-.34,1-.52,1.44-2.67,7.25-6.76,13.63-10.79,20.17-8.15,13.19-16.25,26.42-24.47,39.57a.33.33,0,0,0,.56.33c8.3-13.49,16.7-26.92,25.07-40.37C238,179,241.83,173,244.37,166.13c.71-1.9,1.36-3.83,2-5.76l.27-.44c-.11.3-.22.6-.32.9-1.48,4.09-2.27,8.27-3.52,12.41-1.3,4.3-4,8.33-6.29,12.17-2.38,4-5.15,7.85-7.36,12-.06.11.1.25.19.14A97,97,0,0,0,237,185.7c2.11-3.57,4.51-7.21,6-11.09,1.56-4.11,2.12-8.59,3.56-12.77,1.59-4.61,3.28-9.14,4.08-14,0-.1-.13-.15-.15-.05a84,84,0,0,1-3.67,11.67l-.28.41c1.43-4.54,2.67-9.14,3.89-13.72a1.71,1.71,0,0,1,1.13,1.69h0s0,0,0,0c-2.25,8-3.79,16.34-6.61,24.2a75.78,75.78,0,0,1-12,21.5c-4.91,6.19-10.05,12.14-14.65,18.58q-3.56,5-6.82,10.13c-2.3,3.64-4.37,7.46-7.3,10.66-.26.29.17.72.43.43a59.77,59.77,0,0,0,6.4-9.2q3.47-5.58,7.26-10.95c4.92-7,10.52-13.32,15.74-20a75.08,75.08,0,0,0,11.23-20.13c2.94-8,4.71-16.48,6.52-24.77.13.41.26.82.37,1.24s.24,1,.35,1.52A114.65,114.65,0,0,1,246,175.4a106.32,106.32,0,0,1-13,23c-5.21,7.11-11,13.77-16.55,20.62-2.43,3-4.82,6-7.09,9.15-2.7,3.71-5.13,7.61-8.14,11.07a3.11,3.11,0,0,1-.31-.67,3,3,0,0,1-.07-1c.72-.56,1.4-1.18,2.06-1.79a15.21,15.21,0,0,0,2.63-2.75c.06-.1-.06-.23-.16-.16a32.21,32.21,0,0,0-2.6,2.5c-.59.55-1.21,1.09-1.82,1.63a8.47,8.47,0,0,1,1.62-2.89c.84-1,1.84-2,2.71-3,1.56-1.84,3.1-4,3.33-6.47a5.92,5.92,0,0,0,0-1.33c7.23-12.82,16.42-24.41,23.72-37.19,7-12.2,12.93-25.71,15.9-39.5a.18.18,0,0,0-.35-.1c-4.32,13.94-9.26,27.34-16.63,40-7.11,12.23-15.85,23.43-22.85,35.74a7.3,7.3,0,0,0-.48-1.23.28.28,0,0,0,.21-.19c2.77-6.61,7.1-12,11.05-17.87a199.43,199.43,0,0,0,10.54-17.82c3.16-6,6.06-12.1,8.88-18.26s6-12.52,7.75-19.19a.21.21,0,0,0-.4-.11c-2.07,7-5.43,13.61-8.52,20.21-2.94,6.27-6,12.49-9.24,18.59a194.4,194.4,0,0,1-10.38,17.38c-3.68,5.43-8,10.46-10.21,16.72a6,6,0,0,0-.81-1c6.31-11.48,12.89-22.72,19.85-33.82a139.45,139.45,0,0,0,9.08-17.87c.05-.11.11-.22.16-.34l0,0a12.83,12.83,0,0,1,1.21-2l0,0c-.22.25-.42.52-.64.78,2.57-5.68,5.36-11.35,7.5-17.18a.14.14,0,0,0-.26-.11c-3.3,6.24-6,12.77-8.81,19.23A136.44,136.44,0,0,0,220,192.71c-2.21,4.55-5.49,8.39-8.16,12.66-1.42,2.28-2.73,4.63-4.06,7-1.05,1.85-2.57,3.86-3.09,6a4.16,4.16,0,0,0-1.33-.2,7.39,7.39,0,0,0,.59-2c2.92-5.19,6.22-9.86,9.63-14.73a37.84,37.84,0,0,0,3.91-7.52,52.45,52.45,0,0,1,4.81-9,141.44,141.44,0,0,0,9.22-16.49c3-6.36,6.29-12.66,9.09-19.13A.25.25,0,0,0,240.65,149.18Zm-.53.18c-6.26,11.73-11.16,24-18.44,35.18a51,51,0,0,0-4.32,7.74,46.35,46.35,0,0,1-4.15,8.38c-3.18,4.64-6.72,9-9.21,14a3.89,3.89,0,0,0,0-.47,7.12,7.12,0,0,0-.77-2.23,274.93,274.93,0,0,0,19.67-30.07c2.86-5,5.58-10.09,7.95-15.34,1.13-2.5,2.17-5.05,3.12-7.63,1-2.82,1.87-5.72,3.49-8.28.13-.2-.19-.38-.32-.19a29.27,29.27,0,0,0-3,6.64c-1.07,3-2.29,5.87-3.6,8.75-2.45,5.37-5.24,10.59-8.17,15.72a274.59,274.59,0,0,1-19.53,29.83,17.59,17.59,0,0,1-1.52-1.6c0-.73,1.84-2.11,2.31-2.64.74-.81,1.45-1.65,2.11-2.52a25.88,25.88,0,0,0,2.14-3.27.33.33,0,0,0,.31-.13,104.46,104.46,0,0,0,7.87-13.4c2.3-4.33,4.9-8.46,7.55-12.58,4.71-7.32,10-15.29,11-24.15C236.43,150.58,238.28,150,240.12,149.36Zm-6,1.85c-2.14,9.21-6.76,16.87-11.83,24.75-2.51,3.9-4.92,7.83-7.09,11.93-2,3.83-4,7.69-6.41,11.3.1-.27.22-.53.3-.8s.15-.55.22-.83c9.52-14.1,14.41-30.6,22.62-45.41a.17.17,0,0,0-.3-.17c-8.52,14.16-13,30.37-22.06,44.23,0-.11,0-.22,0-.33a385.24,385.24,0,0,0,19.71-43.48C231,152,232.55,151.65,234.14,151.21ZM220.81,154l2.27-.38c-5,11.17-9.76,22.34-15.56,33.14-.23.43.42.81.66.38,5.77-10.78,11.37-22,15.31-33.59,1.85-.32,3.7-.69,5.53-1.09-5.77,14.26-12.37,28.09-19.34,41.8a10.15,10.15,0,0,0-.38-2.29,129.45,129.45,0,0,0,16.38-38.49.08.08,0,1,0-.15,0A160.08,160.08,0,0,1,209,191.07a13.15,13.15,0,0,0-3.4-4.83c2.88-5,5.08-10.56,7.54-15.74C215.73,165,218.33,159.55,220.81,154Zm-.32.05c-2.8,5.47-5.49,11-8.17,16.54-2.4,5-5.26,10-7.29,15.14l-.6-.49c1.79-5,3.44-10.07,5.51-15,2.26-5.36,4.89-10.52,7.43-15.74C218.41,154.37,219.45,154.21,220.49,154.06Zm-3.55.5A123.4,123.4,0,0,0,209.29,170a128.5,128.5,0,0,0-5.51,14.78c-.33-.24-.67-.47-1-.7a.22.22,0,0,0,.15-.13A244.78,244.78,0,0,0,213.7,155s0,0,0,0Q215.32,154.77,216.94,154.56Zm-5.28.61.29,0,1.5-.16Q208,169.4,202.38,183.69a.2.2,0,0,0,0,.1,30.1,30.1,0,0,0-2.67-1.47C204.61,173.91,209.26,164.64,211.66,155.17Zm-.36,0c-1.9,4.71-3.56,9.48-5.66,14.1-2,4.35-4.22,8.57-6.61,12.7-.45-.2-.89-.39-1.34-.57,2.17-4,4.17-8.14,6.06-12.3,2-4.38,4.4-9,5.48-13.74Zm-2.17.2c-2.42,4.37-4,9.31-6.11,13.86-1.87,4-3.9,8-5.94,11.93l-1.54-.54c4-8.15,7.76-16.59,11.12-25Zm-2.77.26c-4.11,8.06-7.94,16.44-11.43,24.8-.45-.14-.9-.26-1.33-.38l-.07,0c3.12-8.11,6.51-16.08,9.8-24.13ZM203,156a150.8,150.8,0,0,0-10.07,24c-1-.25-2-.47-3.05-.66,4.83-6.8,9.21-14.94,11.14-23.06a.08.08,0,0,0,0-.07C201.7,156.07,202.36,156,203,156Zm-2.27.21c-1.75,4.18-3.25,8.4-5.29,12.46a101,101,0,0,1-6.25,10.51l-2-.35a104.3,104.3,0,0,0,10.9-22.34C199,156.34,199.89,156.26,200.76,156.17Zm-2.87.31c-3.6,7.55-7.29,14.91-11.37,22.2l-1.61-.25a160.81,160.81,0,0,0,10.3-21.62C196.1,156.69,197,156.59,197.89,156.48Zm-2.93.37c-3.71,7-7.32,14.28-10.66,21.49l-1.06-.15c2.83-7.1,5.94-14,9.16-20.92C193.25,157.11,194.1,157,195,156.85Zm-5,1,0-.11c.65-.15,1.31-.27,2-.39a123.77,123.77,0,0,0-9.31,20.78l-2.79-.41c1.67-3.32,3.28-6.67,4.92-10,.87-1.77,1.73-3.53,2.59-5.3.36-.73.72-1.47,1.07-2.21.2-.41,1.41-2.22,1.4-2.37C189.9,157.89,190,157.9,190,157.84Zm-1,.13a20.46,20.46,0,0,0-1.13,2.43c-.94,1.91-1.89,3.81-2.83,5.72-1.88,3.84-3.8,7.66-5.64,11.51-.57-.08-1.13-.17-1.69-.27,2-2.57,3.54-5.8,5.1-8.65,1.85-3.38,3.63-6.8,5.16-10.34a.12.12,0,0,0,0-.15C188.29,158.12,188.65,158.05,189,158Zm-3,.77c.59-.17,1.18-.31,1.77-.47-1.72,3.25-3.37,6.55-5.15,9.77-1.68,3.06-3.89,6.06-5.32,9.25l-.53-.09-1.31-.23A96.38,96.38,0,0,0,186,158.78S186,158.76,186,158.74Zm-10.39,5a35.75,35.75,0,0,1,10.2-4.89c-3.5,6.05-7.37,11.94-10.76,18a.13.13,0,0,0,0,.06l-1.18-.23c3.06-5.65,6.37-11.12,9.77-16.57.06-.1-.09-.18-.15-.09a159.87,159.87,0,0,0-10.14,16.54,12.79,12.79,0,0,1-2.19-.73c.13-.28.19-.59.31-.92.54-1.4,1.22-2.77,1.86-4.12,1.15-2.46,2.55-4.83,3.56-7.34a.07.07,0,0,0-.12-.05,54.67,54.67,0,0,0-3.78,7.19c-.51,1.09-1,2.18-1.52,3.28-.24.55-.45,1.15-.74,1.68,0,0,0,0,0,.06a4.63,4.63,0,0,1-1.3-1,96,96,0,0,0,4.88-10C174.71,164.31,175.15,164,175.57,163.7Zm-6.85,7.89c.64-2.55,2.84-4.79,5-6.53a103.08,103.08,0,0,0-4.67,9.2A3.27,3.27,0,0,1,168.72,171.59Z"/><path class="cls-3" d="M233.76,265c.26-.19,0-.62-.26-.44a2.59,2.59,0,0,0-1.15,1.61,1.87,1.87,0,0,0,.33,1.83.19.19,0,0,0,.31-.13,8.88,8.88,0,0,1-.1-1.46A2.22,2.22,0,0,1,233.76,265Z"/><path class="cls-3" d="M173.79,140.49a4.52,4.52,0,0,0-1.26-.72,7.7,7.7,0,0,0-3.05-.34c-.25,0-3,.38-3,.73a27.26,27.26,0,0,0,3,.1,6.91,6.91,0,0,1,2.57.57,3.23,3.23,0,0,1,.84.58.33.33,0,0,1,0,.06h0s0,0,0,0,0,0,0,.05,0,0,0-.06a.93.93,0,0,1-.15.13,4.08,4.08,0,0,1-.84.41,44.45,44.45,0,0,1-7.69,1.48,119.68,119.68,0,0,1-14.13,1.19h0a15.46,15.46,0,0,1-3.78-.53,4,4,0,0,1-.44-.17.28.28,0,0,1-.13-.07.41.41,0,0,0,0,.09s0,.08,0,.05a.23.23,0,0,0,0-.14s-.05-.08,0-.06l.09.06a6.61,6.61,0,0,1,1.81-1.69,31.71,31.71,0,0,1,4.23-2.43,69.64,69.64,0,0,1,11-4.2,38.46,38.46,0,0,1,4.74-1,14.88,14.88,0,0,1,1.77-.09c.15,0,1.24.18,1.28.15.09-.3-1-.65-1.2-.69a7.51,7.51,0,0,0-1.89-.22,24.94,24.94,0,0,0-5,.52,60,60,0,0,0-11.59,3.56,34.36,34.36,0,0,0-4.68,2.39,7.91,7.91,0,0,0-2.84,2.7,2.76,2.76,0,0,0-.27.93,2.14,2.14,0,0,0,.14,1.06,2.53,2.53,0,0,0,.59.88,4.08,4.08,0,0,0,.83.6,5.06,5.06,0,0,0,.81.35,17.87,17.87,0,0,0,4.54.67h.17c4.54-.31,9.91-1.12,14.37-1.85a35.51,35.51,0,0,0,8-2.13,4.82,4.82,0,0,0,1.13-.69,2,2,0,0,0,.41-.45,1.34,1.34,0,0,0,.23-.6,1.15,1.15,0,0,0-.12-.66C174.15,140.85,173.88,140.6,173.79,140.49Z"/><path class="cls-3" d="M296,133.77a31.31,31.31,0,0,0-16.29-.09A33.44,33.44,0,0,0,261.6,146.2c0-.83,0-1.63-.09-2.48,0,.91,0,1.79-.05,2.68l0,0c.17-5.69.09-11.45-.26-17.2l-.42,1.06c0-.13,0-.25,0-.37a4.29,4.29,0,0,0-.18-1.12,4.84,4.84,0,0,0,.18-1.36c-.21-6.09-12.44-11-32-14-19-2.9-45.22-4.19-74.06-3.2S99.82,114.34,81,118.54c-19.35,4.32-30.15,10-29.94,16.1a5,5,0,0,0,.16,1.09v.06a5,5,0,0,0-.15,1.33,5.12,5.12,0,0,0,.15,1,183,183,0,0,0,5,43.24c-2.66-9.26-4-19.1-4.64-31.18a100.38,100.38,0,0,0,6.78,39.14c4.46,15,10.94,28.59,19.23,39.48,38.89,51.71,123.79,47.12,160.29-3.64l-.13.77,2-1.83c7.36-6.75,17.51-13.52,27.91-20.45,3-2,6.12-4.09,9.15-6.15h0a.2.2,0,0,0,.39.11c.06-.16.12-.33.17-.5,19.06-13,36.34-26.85,36.34-42.69a19.44,19.44,0,0,0-4.94-12.92A26.17,26.17,0,0,0,296,133.77ZM264.61,161.4a9.78,9.78,0,0,0,5.46.86,9.65,9.65,0,0,0,7.94-6.79,13.86,13.86,0,0,1,4.92-4.35,14,14,0,0,1,6.51-1.61,15.11,15.11,0,0,1,1.51.09,1.52,1.52,0,0,0,0,.21.16.16,0,0,0,.24.14,1,1,0,0,0,.31-.27c.24,0,.48.08.71.13,0,0,0,.09,0,.13a.18.18,0,0,0,.27.16,1,1,0,0,0,.21-.21,13.79,13.79,0,0,1,3.32,1.23,14.06,14.06,0,0,1,2.82,2v0a.18.18,0,0,0,.23.21,13.75,13.75,0,0,1,1.91,2.18c4.53,10.67-16.06,23.39-33.07,33.9-6.72,4.15-12.89,8-16.85,11.25a145.77,145.77,0,0,0,5.53-17.53,96,96,0,0,0,4.9-24.2A9.8,9.8,0,0,0,264.61,161.4Zm5-1a6.48,6.48,0,0,0,1.05-.39,10.87,10.87,0,0,0,3.62-2.87c-.12.32-.26.63-.38,1s-.16.41-.25.62a7.64,7.64,0,0,1-3.83,1.67Zm4.8-2.4c.22-.6.43-1.2.64-1.81.29-.38.58-.78.87-1.18s.4-.62.6-.92a4.1,4.1,0,0,0-.4,1.09A7.66,7.66,0,0,1,274.41,158Zm3.22-4.89c.26-.47.54-.92.77-1.4a3.21,3.21,0,0,1,.3-.21.82.82,0,0,1,.34-.09c.09,0,.22,0,.29,0l.22.05c-.06.11-.13.22-.2.33A12.51,12.51,0,0,0,277.63,153.13Zm3.74-2.41h0c.2-.16.72-1,.94-1.24.08-.1.17-.19.26-.29l0,.1a8.81,8.81,0,0,0-.55,1.11Zm1.46-.74c.1-.21.19-.42.27-.61s.18-.39.26-.6h0c.15,0,.43.15.55.18a1.61,1.61,0,0,0,.89.16l0,0A17.47,17.47,0,0,0,282.83,150Zm2.8-1.08,0-.05c.12-.2.27-.4.4-.6l.18,0a2.11,2.11,0,0,0,1.14-.09l.08,0-.27.38A13.58,13.58,0,0,0,285.63,148.9Zm7-1.44c.74.13,1.46.31,2.19.5a3.61,3.61,0,0,0-.53.72c-.08.12-.18.24-.27.37l-.85-.23a3.37,3.37,0,0,0,.33-1c0-.11-.13-.14-.2-.08a3.55,3.55,0,0,0-.64.94l-.58-.12a9.14,9.14,0,0,0,.55-1.08S292.66,147.48,292.66,147.46Zm11.42,14.66c0,.13.18.32.24.43l0,0c.06,0,.14-.1.19-.15s.2-.23.15-.15-.08.19-.06.26a.8.8,0,0,0,.09.31c.19.27-.26-.16-.37-.27A16.81,16.81,0,0,1,302,164l-.25.15.17-.35a16.59,16.59,0,0,0,1.73-1.83l.35-.36A1.09,1.09,0,0,0,304.08,162.12Zm-.95-.43c-.13.14-.27.28-.41.41a11,11,0,0,0,.59-2.41c.74-.75,1.41-1.6,2.08-2.36a8.08,8.08,0,0,0,.79-.86,2.29,2.29,0,0,1,0,.25,4.59,4.59,0,0,1-.34,1.84,7.36,7.36,0,0,1-.59,1.12A27.07,27.07,0,0,0,303.13,161.69Zm2.86-5.86s-1.42,1.54-2.62,2.88a9.31,9.31,0,0,0-.09-1.58l.58-.76a24.63,24.63,0,0,0,1.5-2.17,7.34,7.34,0,0,1,.45.84c.08.19.14.37.2.55A.18.18,0,0,0,306,155.83Zm-2.76.35-.11.13a9.31,9.31,0,0,0-.42-1.33l.37-.61a13.21,13.21,0,0,0,.91-1.75c.27.25.55.51.8.79l.28.35C304.46,154.58,303.87,155.4,303.23,156.18Zm-.66-2.1a2.83,2.83,0,0,1-.2.28,8.11,8.11,0,0,0-.91-1.08,1.62,1.62,0,0,0,.1-.18c.27-.45.54-.9.79-1.36l.19-.35c.37.28.74.58,1.09.89C303.3,152.89,303,153.5,302.57,154.08Zm-1.32-1.58c-.07.12-.15.24-.23.36a12.79,12.79,0,0,0-1-.81l.17-.31a15.83,15.83,0,0,0,.69-1.44c.44.25.86.52,1.28.81C301.9,151.55,301.32,152.39,301.25,152.5Zm-1.52-1c-.05.09-.11.17-.17.26l-.86-.53c.15-.24.28-.5.4-.71s.33-.56.47-.87c.31.15.6.31.9.47C300.23,150.56,300,151,299.73,151.47Zm-1.1-1.26c-.14.21-.32.44-.49.67l-.65-.35c.17-.23.31-.49.45-.7s.3-.48.46-.72l.66.28C298.91,149.67,298.78,150,298.63,150.21Zm-1.1-.73c-.16.24-.39.49-.57.77l-.13-.07c-.27-.15-.55-.27-.83-.4a4.53,4.53,0,0,0,.45-.8,3.58,3.58,0,0,0,.24-.48l.41.13c.28.09.54.19.81.29Zm-1.6-.7a7.59,7.59,0,0,0-.44.79c-.29-.12-.59-.24-.89-.34l.16-.29a2.45,2.45,0,0,0,.45-.88l.47.12.47.15C296.07,148.48,296,148.63,295.93,148.78Zm-4.36-.26c-.25,0-.49-.08-.74-.1a2.72,2.72,0,0,1,.16-.25c.18-.29.35-.59.52-.89l.33,0,.51.1A9.61,9.61,0,0,0,291.57,148.52Zm-.93-.66c-.11.17-.26.34-.4.52l-.63,0a1,1,0,0,1,.08-.11c.23-.33.45-.66.65-1l.69,0C290.9,147.45,290.78,147.66,290.64,147.86Zm-1.26.1c-.09.13-.22.26-.34.4-.39,0-.77,0-1.15.08v0c.16-.23.3-.47.44-.71a4.09,4.09,0,0,1,1-.37,3.1,3.1,0,0,1,.57-.09C289.71,147.49,289.55,147.73,289.38,148Zm-28.14,2.94c0-.14.06-.27.1-.4,0,1.24-.1,2.47-.17,3.67a4.35,4.35,0,0,1-.1-.52C261.14,152.73,261.19,151.82,261.24,150.9Zm-.51,7.08.15.22a111.92,111.92,0,0,1-2.58,16.88C259.38,169.51,260.19,163.79,260.73,158ZM52.8,135.72a3.71,3.71,0,0,1,.39-.73,13.53,13.53,0,0,0,.26,1.88A5.38,5.38,0,0,1,52.8,135.72Zm.23-3.14c2.26-4.37,12-9.49,27.64-13,18.66-4.16,45.43-7.63,74.11-8.62s54.7.31,73.6,3.19c18.34,2.79,31.53,8.64,31.69,13.34v0c-2.88-5-14.32-9-31.31-11.6-16.11-2.45-37.37-3.74-61-3.48-.17-.18-.48-.21-.59,0l-2.63,0c-.11-.29-.5-.22-.66,0l-3.06.06a.51.51,0,0,0-.62,0l-3.17.08a.5.5,0,0,0-.81,0l-1.51,0q-2.94.09-5.83.23a.52.52,0,0,0-.94,0c-26.13,1.21-49.59,4.13-66.9,8C66.6,124.24,56.93,128.23,53,132.58Zm193.82,4.22c-.17.19-.34.37-.5.56l-.18.18q-2.8,1.1-6.07,2.11a47.11,47.11,0,0,0,7.47-4.86c-.25.52-.51,1-.76,1.54A.46.46,0,0,0,246.85,136.8ZM156,150.73c-28.67,1-54.7.05-73.61-2.83-3.49-.53-6.73-1.17-9.7-1.9-.39-.27-.77-.56-1.16-.88a8.83,8.83,0,0,1-2.21-2.69,4.42,4.42,0,0,1-.45-2.83,5.86,5.86,0,0,1,1.69-3,16,16,0,0,1,4-2.87.32.32,0,0,0,.38-.2h0l.18-.1c13.57-5.64,33.08-7.68,50.58-8.61,0,.22,0,.45,0,.68a.34.34,0,0,0,.63.17,6.54,6.54,0,0,0,.56-.91c6.06-.31,11.86-.49,17.06-.65l5.21-.15c3.81-.09,7.62-.14,11.43-.18,0,.19.07.39.12.58.12.5,1,.55,1.05,0,0-.19,0-.4.06-.6,22.62-.22,45.28.16,67.84,1.91a102.33,102.33,0,0,1,11.83,1.66,26.52,26.52,0,0,1,4,1.19l.46.21a.8.8,0,0,0,0,.15c0,.14.17.2.26.11l.09-.11a6.53,6.53,0,0,1,1.51,1,3.5,3.5,0,0,0-.12.63.19.19,0,0,0,.32.13,2,2,0,0,0,.23-.27,2.89,2.89,0,0,1,.19.35,1.77,1.77,0,0,1,.12.82,2.61,2.61,0,0,1-.31,1,5.84,5.84,0,0,1-.83,1.2c-3,3.29-7.45,5.08-9.12,6.47-2.83.84-5.87,1.62-9.08,2.34C210.59,146.68,184.72,149.75,156,150.73Zm66.26-5.66A398.93,398.93,0,0,1,156,153.21,397.7,397.7,0,0,1,87.9,149.4c18.38,2.33,42.21,3.3,68.21,2.41C181.29,150.94,204.34,148.48,222.3,145.07ZM71.19,134.13a14.84,14.84,0,0,0-1.63,1.48c-.29.33-.54.64-.77,1-.09-3-.36-6.07-.48-8.88a.35.35,0,0,0-.69,0c-.22,5.37-1,11.61,0,16.9l-1.13-.36a121.11,121.11,0,0,1-.92-16.38c1.8-.63,3.77-1.25,5.89-1.86-.15,1.27-.2,2.55-.26,3.83A20.7,20.7,0,0,0,71.19,134.13Zm-1.1,11.18c-.64-.17-1.26-.36-1.86-.54h0c.1-.47.17-.95.24-1.44A9,9,0,0,0,70.09,145.31Zm-3.46.06c1.32.38,2.71.74,4.18,1.09-1.48-.34-2.87-.68-4.18-1Zm5.85-15.18c0-1.49.08-3,0-4.47l1.84-.5c-.15,1.43-.14,2.86-.17,4.3a24.48,24.48,0,0,0,0,2.71c-.6.33-1.17.67-1.72,1C72.51,132.24,72.46,131.19,72.48,130.19Zm4.32-2.25a6,6,0,0,0,.46,2.9h0c-.65.26-1.28.53-1.91.8,0-.71,0-1.44,0-2.12a45.1,45.1,0,0,0-.19-4.51l1.66-.42C76.71,125.71,76.77,126.82,76.8,127.94Zm1.15-.25c-.07-1.11-.14-2.22-.32-3.32l3.12-.73c.1.92.22,1.84.29,2.77a12,12,0,0,0,.33,2.94c-1.19.4-2.36.82-3.5,1.26A7.34,7.34,0,0,0,78,127.69Zm3.69-4.26,2.08-.45c.15,1.17.41,2.33.54,3.51.07.64.06,1.31.17,1.94-.76.22-1.53.44-2.27.68A10.77,10.77,0,0,0,81.64,123.43Zm4,2.8A7.73,7.73,0,0,0,85.9,128l-.34.09a12.47,12.47,0,0,0-.18-1.82,13.52,13.52,0,0,0-.82-3.43l0,0,1-.21a.36.36,0,0,0,0,.1A35,35,0,0,0,85.68,126.23Zm3.75.64a.36.36,0,0,0,.3.17c-.91.22-1.82.43-2.7.67a11.37,11.37,0,0,0-.2-1.92c-.13-1.08-.25-2.16-.48-3.21a.77.77,0,0,0-.07-.16l2.82-.59c0,.62-.06,1.24-.07,1.85C89,124.73,88.84,126,89.43,126.87Zm.91-2.94c0-.78,0-1.57,0-2.36l2.54-.52c0,.83,0,1.65,0,2.47a11.27,11.27,0,0,0,.11,2.79c-1,.22-2,.44-3,.68a.34.34,0,0,0,.12-.12A6.06,6.06,0,0,0,90.34,123.93Zm3.72-.41c0-.89,0-1.8,0-2.69l1.57-.31a17.55,17.55,0,0,0-.16,3.47c0,.59,0,1.21.11,1.82-.51.1-1,.19-1.54.3A13.14,13.14,0,0,0,94.06,123.52ZM99,125.19c-.75.12-1.49.25-2.23.39-.07-.53-.16-1.07-.19-1.59-.08-1.21-.06-2.43-.1-3.64l2.86-.54a7.41,7.41,0,0,0-.57,2.94A5.54,5.54,0,0,0,99,125.19Zm1-2.44a18.64,18.64,0,0,0,.06-3.08l3.1-.56a22.88,22.88,0,0,0-.55,2.93,9.09,9.09,0,0,0-.19,2.59L100,125A12.16,12.16,0,0,0,100,122.75Zm3.56,1.72a21.27,21.27,0,0,0,.22-2.27c.11-1.08.31-2.17.38-3.26l2.62-.45a29.94,29.94,0,0,0-.94,3.73c-.13.64-.29,1.31-.37,2C104.85,124.29,104.21,124.37,103.58,124.47Zm15.35-7.83,3-.4a42.9,42.9,0,0,0-1.29,4.46c-.15.63-.38,1.3-.51,2l-2.76.23a6.45,6.45,0,0,0,1-2.57,15.19,15.19,0,0,0,.71-3.38A.34.34,0,0,0,118.93,116.64Zm4.13-.55,2.3-.28c-.59,1.37-1.14,2.75-1.62,4.16-.26.79-.6,1.64-.84,2.49l-1.2.09c.09-.51.16-1,.27-1.5.36-1.56.78-3.12,1.09-4.69A.61.61,0,0,0,123.06,116.09Zm3.27-.4c1.08-.13,2.2-.24,3.29-.36a30.46,30.46,0,0,0-2.25,4.76c-.27.69-.59,1.4-.88,2.12l-2.2.15c.16-.6.3-1.2.48-1.77.49-1.53,1-3,1.58-4.56A.4.4,0,0,0,126.33,115.69Zm13.77-1.37,1.9-.13a37.4,37.4,0,0,0-.57,4.36,20.46,20.46,0,0,0-.09,2.94l-3.28.13c.2-.68.33-1.4.52-2.07.48-1.67,1.08-3.31,1.53-5A.44.44,0,0,0,140.1,114.32Zm-2.67,4.58a22.54,22.54,0,0,0-.89,2.78l-3.1.15c.36-.74.64-1.52.93-2.21a25.16,25.16,0,0,0,1.58-4.94l3.32-.28A30.35,30.35,0,0,0,137.43,118.9Zm-4.18.16c-.42.93-1,1.87-1.47,2.85l-3.84.22c.15-.46.29-.91.45-1.35a53.83,53.83,0,0,0,1.9-5.53l4.68-.47C134.39,116.2,133.88,117.65,133.25,119.06Zm-14.88-2.32a15.42,15.42,0,0,0-1.22,3.24,5.23,5.23,0,0,0-.5,3c-1.05.09-2.09.19-3.14.3a23.11,23.11,0,0,0,.52-2.71c.26-1.11.66-2.21.87-3.34l3.49-.5Zm-5.64,3.75a8.3,8.3,0,0,0-.44,2.91l-2.22.23c.2-.7.3-1.44.45-2.13.27-1.24.54-2.47.73-3.73l2.4-.36A19.68,19.68,0,0,0,112.73,120.49Zm-3.36,1a20.62,20.62,0,0,0-.52,2.27l-2,.26c.08-.6.13-1.21.24-1.79.23-1.32.54-2.61.8-3.92.8-.14,1.63-.26,2.45-.39C110,119.11,109.66,120.3,109.37,121.5Zm33.5-7.37,1.6-.11a.53.53,0,0,0,0,.17c-.06,1.78,0,3.56,0,5.34,0,.61,0,1.23,0,1.85h-.57l-1.41,0c0-.73-.05-1.48,0-2.22a45,45,0,0,1,.42-4.91A.51.51,0,0,0,142.87,114.13Zm2.53-.17,2.5-.15c0,1.36,0,2.73,0,4.09a17.25,17.25,0,0,0,.2,3.37l-2.22.06c0-.59-.07-1.2-.1-1.8-.08-1.79-.17-3.57-.35-5.34A.57.57,0,0,0,145.4,114Zm11.95-.57,2.69-.06c.1,2.49,0,5.17.23,7.74-2.09,0-4.18.06-6.26.1a8.64,8.64,0,0,0-.16-3.24,36.55,36.55,0,0,0-.89-4.38h0l1.82-.09,1.4,0c.12,1.17.37,2.33.48,3.5a10.16,10.16,0,0,0,.51,3.2.36.36,0,0,0,.62,0C158.65,118.29,158.15,115.38,157.35,113.39ZM153,121.18l-3.68.06a17.74,17.74,0,0,0-.06-3.34c-.08-1.38-.18-2.77-.28-4.16l2.85-.13a.47.47,0,0,0,0,.26,36,36,0,0,1,.83,4.5A13.67,13.67,0,0,0,153,121.18Zm10.78-1.93a11.76,11.76,0,0,0,0,1.79h-1.8a77,77,0,0,0-.92-7.73l2.74,0C163.6,115.25,163.73,117.28,163.76,119.25Zm3.55,1.74s.05,0,.07.06h-2.49a22.41,22.41,0,0,1-.09-4.09c0-1.23,0-2.47-.17-3.69l2.42,0c-.12,1.28-.13,2.57-.13,3.85S166.66,119.85,167.31,121Zm.67-3.59c0-1.38,0-2.78-.09-4.16h2.3a.43.43,0,0,0,0,.12,76.32,76.32,0,0,0,.11,7.71l-2.58,0a.12.12,0,0,0,.06-.06C168.29,119.88,168,118.61,168,117.4Zm4.93,3.69h-1.63c-.08-2.58-.33-5.15-.46-7.72a.43.43,0,0,0,0-.12l2.27,0c-.09,1.68-.16,3.36-.17,5A10.79,10.79,0,0,0,172.91,121.09Zm2.45,0H174.1A21.55,21.55,0,0,1,174,117c-.05-1.25-.15-2.5-.25-3.76l2,0a34.37,34.37,0,0,0-.17,4.06C175.5,118.59,175.28,119.88,175.36,121.12Zm1.39-3.77a15.78,15.78,0,0,0-.39-4l1.93,0c-.21,2.6-.23,5.21-.45,7.82l-1.27,0A17.81,17.81,0,0,0,176.75,117.35Zm4.58,3.87-2.35,0a19.47,19.47,0,0,0,0-7.83l2.56.06s0,0,0,0a28,28,0,0,0-.21,4.09A16.34,16.34,0,0,0,181.33,121.22Zm6,.15-1.89-.05a16.69,16.69,0,0,0,0-3.16c0-1.43-.08-2.87-.12-4.3a.29.29,0,0,0-.58,0c0,1.43-.09,2.87-.12,4.3a16.45,16.45,0,0,0,.05,3.14l-2.5-.06a16.51,16.51,0,0,0,.06-3.72,28,28,0,0,0-.21-4.09h0c1.9,0,3.77.12,5.62.19a31.83,31.83,0,0,0-.24,3.66A18.7,18.7,0,0,0,187.38,121.37Zm.81-7.73q4.6.19,9,.47c-.13,1.24-.23,2.47-.32,3.71a10.36,10.36,0,0,0,0,3.6c0,.18.36.26.44.06a9.47,9.47,0,0,0,.42-3.36c.06-1.33.11-2.64.12-4,2.56.16,5.06.35,7.5.55,0,.05-.06.09-.06.15a32.2,32.2,0,0,1-.42,4c-.18,1-.68,1.9-.45,2.87a.33.33,0,0,0,.48.2c.95-.73,1.06-2.1,1.21-3.24a10.3,10.3,0,0,0-.19-4h0l3,.26c-.16,1.35-.33,2.7-.61,4-.2.95-.77,1.95-.41,2.89a.33.33,0,0,0,.47.19c1-.62,1.09-2.13,1.25-3.23a12.74,12.74,0,0,0,0-3.8c6.79.64,13.08,1.41,18.71,2.27,3.25.49,6.27,1.06,9.06,1.69a.31.31,0,0,0-.26.22c-.28.88-.54,1.76-.83,2.63a4.86,4.86,0,0,0-.6,2.22.39.39,0,0,0,.56.23c.71-.42.91-1.4,1.15-2.14a9.19,9.19,0,0,0,.41-2.85.28.28,0,0,0-.12-.24,87.93,87.93,0,0,1,8.5,2.35c-.67,1.75-1.41,3.5-2,5.28-.79-.26-1.58-.49-2.42-.7l-.21,0a15.77,15.77,0,0,0,1.07-2.56,6,6,0,0,0,.58-2.78.12.12,0,0,0-.21,0,6.7,6.7,0,0,0-1,2.44,27.6,27.6,0,0,0-.83,2.86c-.83-.19-1.66-.37-2.5-.53.27-.64.47-1.33.71-2a22,22,0,0,0,1.08-3.14.24.24,0,0,0-.43-.18,15.47,15.47,0,0,0-1.25,2.93,21.06,21.06,0,0,0-.76,2.24q-2.37-.44-4.77-.75a6.44,6.44,0,0,0,.75-2.29c.3-1.08.66-2.15,1-3.22a.42.42,0,0,0-.76-.31,21.74,21.74,0,0,0-1.31,3.24,4.59,4.59,0,0,0-.44,2.47l-2.71-.33-.4,0a4.51,4.51,0,0,0,.72-2c.23-.94.46-1.87.71-2.8a.26.26,0,0,0-.5-.14c-.31.91-.65,1.82-1,2.73A4.26,4.26,0,0,0,229,124l-2.43-.24c.43-.9.72-1.94,1-2.76.39-1,1-2.27.09-3.13a.25.25,0,0,0-.42.18,10.47,10.47,0,0,1-1.08,3.61c-.26.63-.61,1.3-.83,2l-1.25-.12a14.73,14.73,0,0,0,.61-2.22,23.45,23.45,0,0,0,.67-3.89c0-.35-.48-.39-.58-.08-.43,1.3-.78,2.62-1.16,3.94-.2.71-.51,1.42-.64,2.15l-2-.18a9.45,9.45,0,0,0,.88-2.38,30.43,30.43,0,0,0,.78-3.89.29.29,0,0,0-.56-.15c-.35,1.18-.72,2.36-1.07,3.55a11.5,11.5,0,0,0-.72,2.81c-2-.16-3.9-.32-5.86-.46h0a7.22,7.22,0,0,0,.88-3c.23-1.14.46-2.29.68-3.43.07-.37-.49-.53-.58-.16-.25,1.14-.53,2.26-.86,3.38a8.31,8.31,0,0,0-.73,3,.25.25,0,0,0,.05.13l-2.4-.16c1-1.6,1.07-4.15,1.13-6,0-.45-.65-.43-.69,0-.1,1.13-.26,2.25-.47,3.36a13.47,13.47,0,0,0-.46,2.57c-2.91-.18-5.83-.36-8.77-.5a13.83,13.83,0,0,0,.48-2.78,29.55,29.55,0,0,0,.19-4.31.34.34,0,0,0-.67,0c-.19,1.56-.41,3.14-.68,4.7a19.41,19.41,0,0,0-.4,2.34c-2.21-.1-4.41-.2-6.62-.28a11,11,0,0,0,.15-3.08c0-1.23-.05-2.46-.12-3.68a.23.23,0,0,0-.46,0c-.07,1.23-.12,2.45-.13,3.68a11.18,11.18,0,0,0,.16,3.06l-2.68-.11a56.45,56.45,0,0,0-.23-7.47c0-.26-.41-.26-.4,0a58.06,58.06,0,0,0,.13,7.46c-1,0-2-.07-3-.09a10.79,10.79,0,0,0,.56-3.79A14.14,14.14,0,0,0,188.19,113.64Zm62.13,10.12c-.56,1.07-.88,2.26-1.33,3.38-.21.53-.49,1.07-.74,1.62a7.17,7.17,0,0,0-1.28-.86c.32-.63.56-1.32.81-1.93a12.06,12.06,0,0,0,1.07-3.54,35.84,35.84,0,0,1,4.39,2l-.25.46a5.57,5.57,0,0,0-.74,1.72c-.94,1.38-1.83,2.85-2.66,4.34a3.36,3.36,0,0,0-.15-.65,3.26,3.26,0,0,0-.55-.92c.29-.61.52-1.27.75-1.86a14.1,14.1,0,0,0,1.09-3.69C250.75,123.65,250.42,123.58,250.32,123.76Zm-3.15,1.8c-.25.65-.59,1.33-.85,2l-.29-.14c-.48-.21-.95-.39-1.43-.56a28,28,0,0,0,1.78-5.35c.75.25,1.46.51,2.14.78A19.45,19.45,0,0,0,247.17,125.56Zm.1,11.42a.39.39,0,0,0,.3-.2l.3-.5.08-.1a.21.21,0,0,0,0-.1,76,76,0,0,0,4.68-8.83h0a6.45,6.45,0,0,0,1.21-1.91l.21-.35a15.47,15.47,0,0,1,2.13,1.54c-2,3.12-3.84,6.24-5.91,9.29-1,.46-2.1.92-3.23,1.37Zm9.5-9.95a4.57,4.57,0,0,1,1.53,3,3,3,0,0,1-.16,1,26.78,26.78,0,0,1-6.43,4.15A36.7,36.7,0,0,0,256.77,127ZM61.49,142.3c-1.09-.48-2.1-1-3-1.47a39.54,39.54,0,0,1-.82-9.54c.9-.51,1.92-1,3-1.51A42.57,42.57,0,0,0,61.49,142.3Zm-2.47.34c.89.41,1.84.8,2.86,1.18a1,1,0,0,1,0,.16c-1-.37-2-.74-2.93-1.13A.25.25,0,0,0,59,142.64Zm2.22-13.09c1.13-.49,2.37-1,3.69-1.45a67.59,67.59,0,0,0,.35,15.7c-.89-.32-1.75-.64-2.56-1C62.14,138.4,61.48,134,61.24,129.55ZM65.47,145s0,0,0,.08c-.9-.26-1.77-.52-2.58-.78,0,0,0-.09,0-.13C63.71,144.47,64.58,144.75,65.47,145Zm-8.54-6c0,.27.06.61.09,1a19.53,19.53,0,0,1-1.84-1.31c-.28-1.36-.57-3.41-.58-3.6a8.72,8.72,0,0,1,0-1.7,16.66,16.66,0,0,1,2.15-1.54A32.66,32.66,0,0,0,56.93,139Zm-1.16,2.13A.69.69,0,0,0,56,141c.44.27.91.54,1.4.8a3.09,3.09,0,0,0,.14.32,19.85,19.85,0,0,1-1.81-1Zm183,79.44c-1,1.6-2,3.18-3,4.72-31.3,45.84-119.82,48-152.67,4.35,16.48,21.91,37.79,32.28,75.07,33.37l-1.68.14C120,261.9,97,251.74,81,230.52a106.23,106.23,0,0,1-12.21-21c4.33,6.83,9.22,13.4,14.34,20.13A261.28,261.28,0,0,1,68,207.58c-7.75-18.37-11.7-40.08-13.67-65.23v0c4.62,3.68,14.16,6.68,27.79,8.75,19,2.9,45.21,4.2,74.05,3.21S211,150.21,229.78,146c15.41-3.44,26.05-7.77,29.65-12.45l-1,2.42c-.82,25.21-3.78,47.08-10.68,65.79a260.7,260.7,0,0,1-14.14,22.73c4.81-7,9.39-13.75,13.4-20.77-.42,1.08-.85,2.14-1.3,3.19a59.35,59.35,0,0,0-3.88,6.21A37,37,0,0,0,238.81,220.57Zm5.45-2.7c-1.12.89-2.21,1.78-3.25,2.67,1.28-2,2.48-4.07,3.64-6.2A19.17,19.17,0,0,0,244.26,217.87Zm.55-.42a30.35,30.35,0,0,0-.05-3.31c.24-.43.45-.88.69-1.33a10.9,10.9,0,0,0,.39,3.8l0,0Zm1.41-1.08a16,16,0,0,0,0-3.09c0-.67,0-1.33,0-2,.3-.61.61-1.23.91-1.85q0,1.16,0,2.31a12.3,12.3,0,0,0,.32,3.64Zm2.19-1.67-.52.4a15,15,0,0,0,0-3.35c-.06-1.08-.15-2.15-.25-3.22.42-.89.84-1.79,1.24-2.7.07-.09.14-.17.2-.26a39.55,39.55,0,0,0,.11,8.64l-1,.58Zm9.23-11.24c-.15,1.67-.48,3.38-.58,5.07-.37.25-.75.52-1.13.76a53.68,53.68,0,0,0,.06-10,.14.14,0,0,0-.27,0c-.17,3.53-.24,7-.62,10.51l-.17.1.08.05-2.13,1.5a.9.9,0,0,1-.26.38,21.56,21.56,0,0,1-3,2.06,46.35,46.35,0,0,0-.18-8.89c.4-.52.82-1.05,1.25-1.57-.28,2.93-.67,6.14-.17,8.93a.25.25,0,0,0,.49,0c.72-3,.43-6.48.33-9.59l1.31-1.16a34.67,34.67,0,0,0,.17,8.59.14.14,0,0,0,.26,0c.48-2.93.21-6.1.2-9.12,1.42-1.19,3.06-2.49,4.87-3.84C258,199.33,257.83,201.39,257.64,203.46Zm1.41,3.86c-.25.13-.49.27-.73.38h0l-.08,0a42.2,42.2,0,0,0,.31-10.74c.53-.4,1.09-.8,1.66-1.2a28.66,28.66,0,0,0-.52,5.33C259.58,203.23,259.3,205.27,259.05,207.32Zm1-.57c1-3.54.65-7.81.77-11.39l1.53-1.07A55.83,55.83,0,0,0,261.16,206h0C260.79,206.24,260.42,206.51,260,206.75Zm4.75-9.55a58.64,58.64,0,0,0-.09,6.22l-1.75,1.17c-.4.34-.81.67-1.22,1,1.36-3.56.89-7.88,1.22-11.69.76-.52,1.56-1,2.36-1.58A21.08,21.08,0,0,0,264.78,197.2Zm1.84,4.92-1.31.88c.32-3.67-.32-7.52.55-11.06.75-.49,1.53-1,2.32-1.47-.46,3.74-.67,7.47-.9,11.22Zm.74-.48c.29-3.81.77-7.61,1.19-11.4L270.6,189A117.45,117.45,0,0,0,269,200.6Zm10.6-7c.51-3.38.11-6.91.76-10.28,0-.25-.33-.35-.38-.11-.74,3.59-.53,7.24-1.06,10.84-.93.63-1.88,1.25-2.82,1.88.93-3.6.92-7.14,1.52-10.88,0-.23-.31-.34-.36-.1-.95,3.91-1.2,7.84-2.27,11.72l-1.08.72a46.34,46.34,0,0,0,.9-10.63.2.2,0,0,0-.39,0c-.29,2.6-.4,5.2-.81,7.78-.18,1.16-.49,2.28-.55,3.41l-1.69,1.1c.61-3.78,1-7.61,1.38-11.42,0,0,0,0,0,0,3.25-2,6.57-4,9.8-6.13-.32,3.51-1.12,7.32-1,10.86Zm5.13-3.46c-.78.54-1.58,1.07-2.37,1.61.72-3.3.57-7.11.6-10.36a.17.17,0,0,0-.05-.13,12.27,12.27,0,0,1,2-.6c.11,1.54.18,3.08.16,4.62S283.05,189.58,283.09,191.19Zm28.74-36.74c1.83,12.72-11.62,24.78-28.11,36.3,0-.14.08-.28.11-.42,0,.07,0,.15.1.1,2.06-1.32,5.32-6,3.61-8.54-.81-1.19-2.29-1.44-3.82-1.2,7.17-4.78,13.56-9.74,17-14.75a.86.86,0,0,0,.15.17c.07.09.24.13.33.18a4.46,4.46,0,0,0,.46.11h.06l0-.07a.44.44,0,0,0,.08-.15s0,0,0,.06a.31.31,0,0,0,.05.17s.05,0,0,0l-.2-.05c-.12.18-.59.58-.65.68a27.88,27.88,0,0,0-2,2,3.52,3.52,0,0,0-.43.68,1.18,1.18,0,0,0-.16.66.58.58,0,0,0,.13.31c0,.09.21.16.28.2s.86,0,.85-.09-.49-.13-.69-.27c0,0-.05-.07-.07-.09a.11.11,0,0,1,0-.08,1.35,1.35,0,0,1,.17-.34,3.65,3.65,0,0,1,.45-.51,13.87,13.87,0,0,1,2.12-1.72,5.56,5.56,0,0,0,1-.85,1.77,1.77,0,0,0,.26-.41,1,1,0,0,0,.09-.49.84.84,0,0,0-.19-.48c0-.09-.22-.2-.29-.26a6.88,6.88,0,0,0-.66.35s-.09.08-.08.05a.56.56,0,0,0,.05-.08.71.71,0,0,0,0-.21c0-.07,0-.2-.08-.27a.32.32,0,0,0-.12-.14s-.09,0-.06,0l.33.1a2.53,2.53,0,0,1,.56.23h0l.16-.09a23.57,23.57,0,0,0,2.86-1.61,2.16,2.16,0,0,0,.62-.69,1.06,1.06,0,0,0,.13-.55,1.14,1.14,0,0,0-.17-.54,1.63,1.63,0,0,0-.17-.2c-.05.05-.09.11-.15.16s-.08.13-.06,0,0-.19,0-.27-.08-.19-.1-.18a1.66,1.66,0,0,1,.33.29,9.32,9.32,0,0,0,1.66-2.38,6.4,6.4,0,0,0,.19-5.11,8.87,8.87,0,0,0-1.25-2.23,19.31,19.31,0,0,0-8.61-5.89c-.08-.06-1.26-.43-1.51-.51a27.31,27.31,0,0,0-4.3-1,7,7,0,0,0-.81-.07,8.48,8.48,0,0,0-2.7.24,6.1,6.1,0,0,0-1.84.82l-.25.14h0l0,0a3.28,3.28,0,0,0-1.64.11,1.87,1.87,0,0,0-.7.48.68.68,0,0,0-.12.12l.19.05h-.22l0-.05a3.61,3.61,0,0,0-.61-.08,2.93,2.93,0,0,0-1.33.26,4.25,4.25,0,0,0-1.65,1.44c-.12.09-.67,1-.84,1.23l0,0,.23.05a.24.24,0,0,0-.12,0,.48.48,0,0,0-.17,0s0,0,.06-.1a3.33,3.33,0,0,0-.84,0,3,3,0,0,0-1.06.36,5.11,5.11,0,0,0-1.51,1.38,28.6,28.6,0,0,0-1.82,3,14.39,14.39,0,0,1-4.34,4.8,4.55,4.55,0,0,1-1.71.57,3.33,3.33,0,0,1-1.4-.19,3.51,3.51,0,0,1-1.11-.71,3.65,3.65,0,0,1-.75-1,2.54,2.54,0,0,1-.29-1,1.33,1.33,0,0,1,0-.4c0-.08.17-.36.14-.4s-.36.21-.41.27a1.47,1.47,0,0,0-.19.49,2.41,2.41,0,0,0,.12,1.25,3.68,3.68,0,0,0,.73,1.31,3.86,3.86,0,0,0,1.31,1.06l0,0a7.67,7.67,0,0,1-4.45-3.43,8.78,8.78,0,0,1-.52-1c.09-2,.14-4.09.11-6.21a7,7,0,0,1,.73-1.3c5-7,11.31-12.06,17.78-13.77,5.23-1.38,11.26-.54,16,.79a24.23,24.23,0,0,1,11.82,7.19C310.86,145.61,311.83,150,311.83,154.45Zm-26,30.68c0,.91-.2,1.79-.24,2.68a27.65,27.65,0,0,0-1.73,2.52,24.8,24.8,0,0,0-.08-8.72c1.54-.23,3,0,3.44,1.51a4.24,4.24,0,0,1-.77,3.4,12.49,12.49,0,0,0-1-4.84c-.06-.17-.33-.1-.27.07A10.9,10.9,0,0,1,285.8,185.13Z"/><path class="cls-3" d="M94.12,228c0-.1-.13-.18-.18-.08a.69.69,0,0,1,0,.1c-.22-.38-.45-.75-.68-1.13l0-.09a.11.11,0,0,0-.19-.12q-.7-1.12-1.44-2.22l0-.1-.19-.27a.25.25,0,0,1,0,.07l-.71-1.07,0-.07-.11-.16,0,.06c-.76-1.16-1.5-2.32-2.16-3.51a12.56,12.56,0,0,1-1.44-3c-.16-.33-.32-.66-.46-1,.1-.14.21-.28.31-.43s0-.13,0-.2a.14.14,0,0,0-.24,0l-.24.31A73,73,0,0,1,81.67,198c-.2-1.22-.36-2.45-.51-3.68l0-.08a.1.1,0,0,0-.07-.15q-.44-3.74-.65-7.47c.1-.17.19-.34.3-.51s-.06-.14-.11-.08-.13.18-.2.26c-.06-1-.11-2-.14-3.06l.27-.48c0-.05,0-.09-.08,0l-.2.31c0-1.18-.07-2.36-.09-3.55.2-.39.4-.77.59-1.16.07-.14-.14-.27-.21-.13l-.39.75c0-1,0-2,0-3.06,0-2.24.11-4.48.15-6.73l.15-.32a.16.16,0,0,0-.14-.23c0-1,0-2,0-3,0-.34,0-.67-.05-1s.23-.51.33-.77c0-.09-.12-.16-.17-.07l-.2.37a14.15,14.15,0,0,0-.41-2.34l0-.07a.1.1,0,0,0-.08-.13,8.65,8.65,0,0,0-.92-2.06c0-.09.06-.18.1-.27a.11.11,0,0,0-.2-.08l-.06.13a6.31,6.31,0,0,0-.44-.58c-2-2.35-5.24-2.4-8.07-3l-.77-.18,0-.06c.06-.14-.16-.23-.23-.1l-.06.1c-3.48-.83-6.86-2.13-9.21-5a.3.3,0,0,0-.48.07l-.48.94v-.15a.13.13,0,0,0-.25,0c0,.22,0,.45,0,.67l-.39.77a.31.31,0,0,0,.37.43,91.85,91.85,0,0,0,.8,13.15l-.48,1.1c-.08.18.18.35.27.16l.3-.62q.55,4.08,1.43,8.1l-.27.47a.2.2,0,0,0,.34.2l.06-.1c.2.92.42,1.84.65,2.75h0a.19.19,0,0,0,.06.21c.1.39.22.79.32,1.18l-.29.46c-.14.21.21.41.35.2a1,1,0,0,1,.08-.14q.63,2.38,1.34,4.72l-.32.45c-.13.2.18.45.34.26l.15-.19.57,1.77c-.06.12-.14.23-.2.34a.21.21,0,0,0,.32.25l0-.07c.18.54.38,1.07.56,1.61l-.5.72c-.19.27.25.52.45.26l.27-.37c.24.68.49,1.36.74,2l-.13.18c-.13.2.13.42.31.33l.73,2c-.15.34-.3.68-.42,1s.26.31.34.1.18-.41.27-.62c.3.79.62,1.58.94,2.36-.08.13-.17.25-.26.38s.06.15.13.09.15-.16.23-.23c.12.29.23.59.35.88,1,2.4,2.1,4.82,3.24,7.21-.06.13-.13.26-.2.39s.09.19.15.09L72,206q1.14,2.39,2.39,4.72l-.09.2c0,.12.14.19.21.09l0,0,1,1.82-.16.29a.1.1,0,1,0,.18.1,1.62,1.62,0,0,0,.1-.18c.39.68.79,1.36,1.19,2-.06.19-.13.37-.18.57s.13.18.18.07.12-.24.17-.36c.7,1.15,1.43,2.29,2.18,3.4l-.06.14.16.16.06-.08c.18.27.36.52.55.78.42.52.8,1.07,1.18,1.63l.3.39,0,0,.21.31,0,0c.34.44.69.87,1,1.3l-.08.1.22.29.08-.1.66.77,0,.07c.09.09.18.2.28.29l0,0c.15.17.32.34.47.52a27.28,27.28,0,0,1,2.55,2.49c.22.26.41.52.6.79l1.12,1.06v0a.16.16,0,0,0,.24.2c.21.2.44.38.66.58-.06.15-.12.3-.17.46l0,0h0a.57.57,0,0,1,.13.08c.08-.13.16-.24.23-.36l.9.75-.09.25.26.19.14-.19.81.64-.12.21.29.23.16-.18c.18.14.37.27.56.4a1.34,1.34,0,0,0-.12.24l.21.16a1.71,1.71,0,0,0,.18-.2l.84.59a1.09,1.09,0,0,0-.05.17.07.07,0,0,0,.12.07s.06-.08.1-.12c.26.19.54.36.8.55,0,.06,0,.12-.05.18l.23.14c0-.05.06-.09.09-.15.55.37,1.1.72,1.68,1.05a.18.18,0,0,0,.27-.2,21,21,0,0,0-2.8-7.17A2.41,2.41,0,0,0,94.12,228ZM59.06,152.74c.21-.52.48-1.22,1-1.26a.77.77,0,0,1,.27.18h0c-.21.76-.35,1.53-.59,2.28-.15.48-.35.93-.54,1.39C59.1,154.48,59.08,153.61,59.06,152.74Zm.11,3.26a8.94,8.94,0,0,0,1.26-4.23c.43.39,1,1,1.18,1.12a.41.41,0,0,0,.11.07,51.28,51.28,0,0,0-2.36,5.67C59.29,157.75,59.21,156.88,59.17,156Zm.24,3.41a44.32,44.32,0,0,0,2.45-6.35,16.5,16.5,0,0,0,1.55.95l-.06,0c-1,1-1.43,2.8-2,4.08s-1.14,2.63-1.69,3.94C59.58,161.18,59.48,160.3,59.41,159.41Zm.35,3.58c.6-1.35,1.16-2.72,1.73-4.08a32,32,0,0,1,2-4.72.09.09,0,0,0,0-.12l.57.3c.32.15.65.27,1,.4-1.77,3.44-3.45,7-5,10.5C59.94,164.51,59.84,163.75,59.76,163Zm.37,3q2.65-5.52,5.2-11.11c.5.2,1,.37,1.53.54a.12.12,0,0,0-.06.06,73.92,73.92,0,0,1-3.49,8.2c-.88,1.66-2.08,3.15-2.8,4.87C60.38,167.7,60.24,166.85,60.13,166Zm.45,3.06c.86-2.42,2.69-4.51,3.89-6.77a30.59,30.59,0,0,0,2.64-6.72s0-.05,0-.07c.6.18,1.22.33,1.83.48-1.33,2.46-2.18,5.22-3.41,7.74-1.34,2.74-2.86,5.39-4.4,8-.06.1.08.18.15.09,3.52-4.92,5.67-10.27,8-15.77l1.44.3c-1.72,3-3.06,6.36-4.64,9.49-1.44,2.84-3,5.64-4.52,8.42Q61,171.68,60.58,169.05Zm1.66,8.51c-.2-.89-.4-1.78-.58-2.68,3.37-5.87,7.06-12.07,9.25-18.47l1,.21,1,.2A175.85,175.85,0,0,0,62.24,177.56Zm.14.57a234,234,0,0,1,10.79-21.25,14.16,14.16,0,0,1,2,.56Q69.4,168.6,62.65,179.16C62.56,178.82,62.46,178.47,62.38,178.13Zm.4,1.56a232,232,0,0,0,12.59-22.12s0,0,0,0a7.09,7.09,0,0,1,1.69.93c-4.62,7.71-9,15.56-13.75,23.21C63.14,181,63,180.35,62.78,179.69Zm.65,2.44a.2.2,0,0,0,.23-.1c4.74-7.66,9.51-15.39,13.6-23.42a5.69,5.69,0,0,1,1.18,1.3c-2.16,4.33-4.08,8.73-6.52,12.92s-5.09,7.85-7.81,11.68C63.88,183.72,63.65,182.93,63.43,182.13Zm.85,3a90.66,90.66,0,0,0,8.07-12,78.92,78.92,0,0,0,6.29-12.82,7.39,7.39,0,0,1,.72,1.65l.06.26C77.05,166.4,75,170.83,72.54,175s-5.32,7.77-7.74,11.77C64.62,186.22,64.44,185.66,64.28,185.09Zm.72,2.35c3.14-3.6,5.63-8.05,8-12.15a93.18,93.18,0,0,0,6.52-12.64,16.84,16.84,0,0,1,.32,2.26A249.66,249.66,0,0,1,65.52,189C65.35,188.47,65.16,188,65,187.44Zm.74,2.2a120.57,120.57,0,0,0,14.15-24c0,1.28,0,2.58,0,3.86a180.68,180.68,0,0,1-13.39,22.2C66.21,191,66,190.32,65.74,189.64Zm.91,2.63a108.41,108.41,0,0,0,13.16-21.92c0,.59,0,1.17,0,1.73,0,.73,0,1.45,0,2.18,0,0,0,0-.06.07-.29.7-.62,1.42-.91,2.15.27-.75.53-1.5.76-2.27a.15.15,0,0,0-.28-.08A37.12,37.12,0,0,1,72.41,187a38.77,38.77,0,0,0-5.1,7.05C67.08,193.46,66.87,192.86,66.65,192.27Zm1.53,4c-.24-.59-.47-1.18-.69-1.78,1.65-3.48,4.41-6.18,6.63-9.33a39.14,39.14,0,0,0,4.32-7.87,12.74,12.74,0,0,0-.41,1.33c0,.08.1.14.15.06A22.85,22.85,0,0,0,79.74,175c0,1.6,0,3.19.05,4.79-1.53,2.94-3.18,5.82-5,8.6-2,3-4.33,5.72-6.33,8.67Zm.44,1.05a57.12,57.12,0,0,0,6.21-8.46,92.63,92.63,0,0,0,5-8.57c0,1.12.06,2.23.11,3.35q-5.2,8.17-10.07,16.57C69.42,199.29,69,198.32,68.62,197.36Zm1.35,3.2a.18.18,0,0,0,.2-.08c3.37-5.43,6.61-11,9.75-16.53,0,1,.09,1.9.15,2.86-3.77,4.79-5.95,10.82-9.09,16C70.64,202.08,70.3,201.32,70,200.56Zm2.28,5c3-4.78,5.48-9.86,8.06-14.86,0-.08-.08-.15-.12-.07-2.7,4.87-5.58,9.68-8.07,14.67-.34-.73-.68-1.45-1-2.18,3.64-4.81,6-10.59,9-15.84q.24,3.63.69,7.23c-2.58,4.42-5.05,8.92-7.32,13.5C73.05,207.2,72.64,206.38,72.25,205.56Zm1.32,2.66c2.41-4.44,4.82-8.89,7.27-13.31.16,1.28.36,2.55.57,3.82-2.41,3.63-5.07,7.43-6.81,11.46C74.26,209.53,73.9,208.88,73.57,208.22Zm2.34,4.33q3-5.22,5.89-10.53c0-.07-.07-.14-.11-.06q-3,5.14-5.91,10.36c-.33-.59-.67-1.17-1-1.77,2.43-3.7,4.37-7.79,6.67-11.59q.53,3,1.26,6a.06.06,0,0,0-.09,0A32.29,32.29,0,0,0,77,214.44Q76.45,213.5,75.91,212.55Zm4.91,7.66-.29-.39a27.83,27.83,0,0,1,2.26-4.58,10.21,10.21,0,0,0,1.9-3.65c0-.07-.09-.13-.12-.05-1.23,2.77-3.28,5.06-4.27,8l-.66-.95a67.12,67.12,0,0,0,4.62-8,.12.12,0,0,0-.2-.12,71.43,71.43,0,0,0-4.66,7.71c-.33-.5-.67-1-1-1.51a61.17,61.17,0,0,1,5.08-8.48c.05-.07-.06-.15-.11-.09a45.48,45.48,0,0,0-5.16,8.28c-.33-.52-.66-1-1-1.58a51.89,51.89,0,0,1,5.52-9.68c.25,1,.51,2,.81,3,.53,1.79,1.15,3.56,1.83,5.29,0,0,0,0,0,0A45.51,45.51,0,0,0,80.82,220.21Zm.28.36a46.41,46.41,0,0,0,4.35-7c.25.61.51,1.21.77,1.81-1.48,2-3,4-4.53,6C81.49,221.08,81.29,220.83,81.1,220.57Zm.81,1.05c1.52-1.94,3-3.92,4.45-5.92.23.53.48,1.06.73,1.58-.79.94-1.45,2-2.16,3s-1.32,1.77-2,2.65C82.6,222.49,82.25,222.06,81.91,221.62Zm2.18,2.68a34.6,34.6,0,0,0,3.54-5.64c.06-.14-.13-.26-.21-.13-1.19,1.83-2.39,3.63-3.61,5.43-.21-.25-.42-.48-.62-.73a31.88,31.88,0,0,0,4-5.73c.31.66.64,1.31,1,2a51.21,51.21,0,0,1-3.25,5.78C84.64,224.92,84.36,224.62,84.09,224.3Zm3,3.25a45.65,45.65,0,0,0,2.65-5.22c0-.09-.1-.17-.14-.08-.81,1.75-1.76,3.42-2.71,5.09-.25-.26-.52-.5-.76-.77a56.32,56.32,0,0,0,2.8-5.33c0-.05-.05-.1-.08-.05-.93,1.75-2,3.44-2.9,5.19l-.81-.89a29.26,29.26,0,0,0,3.14-5.83c.66,1.26,1.38,2.48,2.14,3.69-.36.82-.73,1.64-1.12,2.44A24.52,24.52,0,0,0,88,228.42a.08.08,0,0,0,0,.08Zm1,1s.06,0,.08,0a17.24,17.24,0,0,0,2.4-4.93l.38.6.28.43c-.37.72-.72,1.46-1.11,2.18s-1,1.55-1.38,2.35Zm2.67,2.42-.13-.1c-.24-.2-.47-.42-.7-.63.77-1.34,1.39-2.85,2.07-4.18.06-.12-.12-.23-.18-.11-.69,1.3-1.56,2.64-2.21,4l-.55-.48A15,15,0,0,0,90.49,227a22.45,22.45,0,0,0,1-2c.47.7,1,1.4,1.41,2.11-.43.78-.86,1.56-1.28,2.35C91.31,229.91,91,230.42,90.74,230.93Zm1.14,1-.78-.65c.31-.52.57-1.09.84-1.61.38-.76.73-1.54,1.08-2.32l.7,1.1c-.31.72-.64,1.42-1,2.11C92.46,231,92.16,231.43,91.88,231.89Zm3.57-.16a7.53,7.53,0,0,1,.76,2.21c0,1,.14,1-.38.66a3.15,3.15,0,0,0,.14-1.29c0-.15-.25-.16-.25,0a5.69,5.69,0,0,1-.19,1.12l-.18-.09c-.11-.05-.21-.12-.31-.17a8.2,8.2,0,0,0,.31-1.45c0-.13-.18-.19-.21-.05a7.5,7.5,0,0,1-.29,1.13c0,.07,0,.14-.08.22-.25-.15-.49-.3-.73-.47a8.67,8.67,0,0,0,.45-1,16.2,16.2,0,0,0,.59-1.65C95.21,231.18,95.34,231.45,95.45,231.73Zm-.44-1s-.07,0-.08.06c-.22.58-.47,1.16-.73,1.73-.13.27-.3.54-.43.83l-.72-.54a11.81,11.81,0,0,0,.71-1.23,13.92,13.92,0,0,0,.77-1.77Zm-.64-1.2a18.83,18.83,0,0,1-1,2.12c-.18.31-.4.61-.6.92l-.51-.41a15.46,15.46,0,0,0,1.65-3.49C94.05,229,94.21,229.26,94.37,229.55Z"/><path class="cls-3" d="M270,231.91c-.24-3.32-5.67-5.16-11.62-2.84C242.3,235.36,240,253.35,239,254.7,246.69,240.25,270.47,238,270,231.91Z"/><path class="cls-3" d="M305.65,197.77a25.42,25.42,0,0,1,9.8,7.74c2.29,3.14,2.83,6.59,4.29,10,.28.67,1.18.23,1.24-.34.34-3.8-2.26-8.24-4.52-11.11a21.09,21.09,0,0,0-10.39-7.33C305.49,196.6,305.08,197.5,305.65,197.77Z"/><path class="cls-3" d="M320.09,201.56a.67.67,0,0,0-.95.95,15,15,0,0,1,2.92,5.43.86.86,0,0,0,1.66-.46A10.32,10.32,0,0,0,320.09,201.56Z"/><path class="cls-3" d="M316.94,161.88c-.27.56.47,1.28.93.72,5.67-7,4.47-18.13-1.06-24.77-.44-.54-1.37.17-1,.75C321.17,146.2,320.78,153.76,316.94,161.88Z"/><path class="cls-3" d="M326.17,204.82c.24,1.2-.26,2.37,0,3.51a.7.7,0,0,0,1.15.31c1.07-1,.79-3.19.38-4.45a6.9,6.9,0,0,0-2.78-3.74c-.57-.38-1.22.48-.73,1A6.59,6.59,0,0,1,326.17,204.82Z"/><path class="cls-3" d="M324.93,154.54c-.13.82,1.09,1.2,1.28.35a14.82,14.82,0,0,0-1-9.37c-.22-.49-1-.14-.87.37A18,18,0,0,1,324.93,154.54Z"/><path class="cls-3" d="M330,153.93a.5.5,0,0,0,.76.1c.74-.63.53-1.84.48-2.73a14.13,14.13,0,0,0-.6-3.29c-.15-.52-1.07-.45-1,.13a22.35,22.35,0,0,1,.2,3.16C329.85,152.16,329.47,153.2,330,153.93Z"/><path class="cls-3" d="M236.09,270.78c.46-1,.55-2.13,1-3.14s1.24-1.83,1.81-2.8a.17.17,0,0,0-.23-.22c-1.67,1-3.32,4.15-2.94,6.12A.18.18,0,0,0,236.09,270.78Z"/><path class="cls-3" d="M134.78,142.91a5.48,5.48,0,0,1,.5-.6,9.22,9.22,0,0,1,1.15-1.1l.09-.07a26.53,26.53,0,0,1,5.71-3.62c.59-.28,5.65-2.22,5.73-2.4-.48-1-5.67.41-6.43.65a24.2,24.2,0,0,0-6.7,3.26l-.1.09a10.19,10.19,0,0,0-1.51,1.44,7.12,7.12,0,0,0-.69,1,4.78,4.78,0,0,0-.52,1.47,3.42,3.42,0,0,0,.11,1.59,3.66,3.66,0,0,0,.83,1.41,6.27,6.27,0,0,0,1.44,1.07,15.63,15.63,0,0,0,4.64,1.33c.43.06,2.83.4,3.07-.15a27.56,27.56,0,0,0-2.77-1.1,13.69,13.69,0,0,1-3.86-1.83,3.53,3.53,0,0,1-.81-.78,1.25,1.25,0,0,1-.24-.57,1.27,1.27,0,0,1,0-.48A3.48,3.48,0,0,1,134.78,142.91Z"/><path class="cls-3" d="M123.48,144.56a1,1,0,0,1,0-.34,2.43,2.43,0,0,1,.39-.79,8.33,8.33,0,0,1,1-1l.09-.1c1.15-1.61,10.28-7.48,10.11-8.48-1-.78-10.43,5.14-11.36,5.92-.25.23-.48.46-.72.71l-.11.13a6.67,6.67,0,0,0-1.08,1.76,3.52,3.52,0,0,0-.29,2.12,2.58,2.58,0,0,0,.43,1,2.71,2.71,0,0,0,.81.77c.43.26,7.57,2.48,7.92,2,0-.26-6.52-2.66-6.9-3.19A1.44,1.44,0,0,1,123.48,144.56Z"/><path class="cls-3" d="M236.13,265.47a.2.2,0,0,0-.21-.35,2.93,2.93,0,0,0-1.36,1.54c-.2.52-.42,1.48.05,1.91a.19.19,0,0,0,.31-.09c.18-.45,0-1,.14-1.51A2.85,2.85,0,0,1,236.13,265.47Z"/><path class="cls-3" d="M313.91,217.65a13.62,13.62,0,0,0-1.67-5.27,15.13,15.13,0,0,0-4.12-4.71c-5.08-3.7-10.31-4.65-16.47-5a38.89,38.89,0,0,0-10,.9,47.84,47.84,0,0,0-8.85,3c-19.14,8.74-35.43,28.66-36.41,50.13C239,235.93,256,219,274.6,210.69a42.82,42.82,0,0,1,5.27-2c2.69-.19,5.7.36,5.93,4.07a5.76,5.76,0,0,1-2.93,4.83q-2.69,2.34-3.81-1.86c.61-.15.35-1.1-.27-.95-2.31.58-2.75,3.15-.55,4.4,3.11,1.76,7.39-1.85,8.17-4.73.9-3.3-1.18-5.87-4.32-6.38l.53-.14a38.73,38.73,0,0,1,8.93-1.12c5.29.12,10,.71,14.54,3.61a12.31,12.31,0,0,1,3.44,3.53,11,11,0,0,1,1.53,4.05,11.73,11.73,0,0,1-1.46,7.84,8.47,8.47,0,0,1-2.39,2.63,5.83,5.83,0,0,1-3.06,1.1,3,3,0,0,1-1.71-.4,2.43,2.43,0,0,1-1-1.1,1.83,1.83,0,0,1-.13-.64,1.5,1.5,0,0,1,.17-.66,1.85,1.85,0,0,1,.56-.68,11.29,11.29,0,0,0,1.05-.8c-.06-.2-1.27.15-1.4.25a2.64,2.64,0,0,0-.93.76,2.33,2.33,0,0,0-.46,1,2.67,2.67,0,0,0,0,1.09,3.53,3.53,0,0,0,1.28,1.91,4.3,4.3,0,0,0,2.51.89,7.49,7.49,0,0,0,4.11-1.05,10.3,10.3,0,0,0,3.25-3A13.84,13.84,0,0,0,313.91,217.65Z"/><path class="cls-3" d="M184.29,281.09l0,0a3.24,3.24,0,0,0-.4-.43c-.16-.12-.38.08-.23.23a2.11,2.11,0,0,1,.67,1.64.22.22,0,0,0,.36.15,1.06,1.06,0,0,0,.28-1C184.86,281.38,184.63,281,184.29,281.09Z"/><path class="cls-3" d="M256.78,245.83c-11.68.75-16.88,11.89-17.76,12.56,7.91-7.75,23.72-4.29,24.68-8.34C264.22,247.85,261.1,245.55,256.78,245.83Z"/><path class="cls-3" d="M155.3,102.53a.33.33,0,0,0,.42-.13,23.41,23.41,0,0,0,3.12,1.46c.31.12.52-.39.23-.54a13.58,13.58,0,0,1-4.39-3.65c-.5-1.43-1.21-2.78-1.81-4.17a17.85,17.85,0,0,1,.4-3.81c.62-2.35,2.56-3.83,3.51-6a9.69,9.69,0,0,0-.86-9.17c-.12-.21-.26-.41-.4-.61s-.69,0-.48.28c2,2.82,2.17,5.76.08,8.5-1.08,1.42-2.44,2.68-3.19,4.33,0-.3-.44-.41-.49-.1-.54,3.5-1,7.12.6,10.27A6.3,6.3,0,0,0,155.3,102.53Zm-.67-2.06a15.47,15.47,0,0,0,1.25,1.31,9.07,9.07,0,0,1-1.76-1.39A1.7,1.7,0,0,0,154.63,100.47Zm-.29-12A21.23,21.23,0,0,1,155.86,86c.07-.1.15-.19.22-.28A20.27,20.27,0,0,1,154.34,88.42Zm1-3.13A8.27,8.27,0,0,0,157,82.15a9.43,9.43,0,0,1-.21,1.66,18.88,18.88,0,0,0-2.37,2.79,4.68,4.68,0,0,0-.46.43C154.37,86.46,154.84,85.89,155.32,85.29Z"/><path class="cls-3" d="M241.88,43.5a2.33,2.33,0,0,0,2,.37L244,44a3.08,3.08,0,0,0,1.82.25c.68-.14,1-.67,1.14-1.3.63-2.17-1.08-5-3.56-4.52C241.29,38.84,239.94,42,241.88,43.5Z"/><path class="cls-3" d="M198.56,43.56a2.93,2.93,0,0,0,1.34,2.35c.52.36,1.12-.14,1.17-.67.18-2.08.33-4.18.41-6.28A40.64,40.64,0,0,1,212,39.8c2.78.61,5.39,1.78,8.1,2.57a2.54,2.54,0,0,1-.16.28c.84.36,1.68.74,2.54,1.13l.5.29a67.28,67.28,0,0,1,16.34,8.15c4.5,3.2,9.52,5.7,13.85,9.1L252,60.24c3.58,2.48,7.1,5.14,10.47,8,1,.87,2.3,2.19,3.87,3.86l.07,0a.82.82,0,0,1,.65.74c.7.76,1.45,1.6,2.23,2.48a23.23,23.23,0,0,0-2.57-1.62h0c-5.85-3.18-13.13-4.28-19.41-4.7-5.77-.39-13.08,1-18.61-.79-3.18-1-5.17-3.7-6.65-6.53a10.13,10.13,0,0,1-.62-3.81,10.07,10.07,0,0,1,1.7-3.44,8.39,8.39,0,0,1,3-1.14.49.49,0,0,0,.5,0l.28-.11a5.48,5.48,0,0,1,.57,0,.39.39,0,0,0,.34-.23,3.76,3.76,0,0,1,3.4,1.29,3.34,3.34,0,0,1,1.15,3c-.18,1.08-.85,2.45-2.2,2.38a.65.65,0,0,0-.62.44,2.36,2.36,0,0,1-.83-.21c-.79-.38-.89-1-.91-1.75,0-.56-.88-.9-1.14-.31a1.67,1.67,0,0,0-.36,1.21,2.24,2.24,0,0,0,.74,2.07,1.92,1.92,0,0,0,2.45.28,2.51,2.51,0,0,0,.39,0,4.27,4.27,0,0,0,.82-.2c2.63.24,3.81-4.32,2.73-6.36a6.94,6.94,0,0,0-4.15-3.23.84.84,0,0,0-.83-.69l-.66,0a6,6,0,0,0-3.1.16c-3,.4-5.68,1.66-6.16,5.09a8.54,8.54,0,0,0,.34,3.49c-.05,2.36.73,5,2.64,6a9.35,9.35,0,0,0,3.42,2.91c.12.09.25.2.38.28,5.62,3.75,14.64,1.75,21,2.09a58.51,58.51,0,0,1,6.16.64,21.23,21.23,0,0,0-3.63.62A20.62,20.62,0,0,0,242.75,75a23.19,23.19,0,0,0-2.25,1.74,19.19,19.19,0,0,0-4.5,5.56,15.23,15.23,0,0,0-1,2.46,15.06,15.06,0,0,0-.28,8.72,16.33,16.33,0,0,0,4.54,7.63,21.19,21.19,0,0,0,8.73,5,10.19,10.19,0,0,0,4.43.18,12.78,12.78,0,0,0,4.37-1.52,7.68,7.68,0,0,0,3.09-3,4.58,4.58,0,0,0,.55-2,4.87,4.87,0,0,0-.46-2.19A16.78,16.78,0,0,0,255.35,91a5.19,5.19,0,0,0-2.17-1,3.49,3.49,0,0,0-1.92.13,3.78,3.78,0,0,0-1.44,1,4,4,0,0,0-.88,1.37,3.14,3.14,0,0,0-.26,1.45,2.6,2.6,0,0,0,.14.66,1.65,1.65,0,0,0,.35.56c.14.12.54.56.72.61a1.06,1.06,0,0,0,.59.19c.15,0,1-.2,1-.38s-.82.13-1,0a1,1,0,0,1-.39-.2,4.06,4.06,0,0,1-.57-.62,1,1,0,0,1-.19-.39,1.71,1.71,0,0,1-.06-.5,3,3,0,0,1,.31-1.13,3.58,3.58,0,0,1,.79-1.06,3.06,3.06,0,0,1,1.15-.65A2.53,2.53,0,0,1,253,91a4.37,4.37,0,0,1,1.68.91,17.6,17.6,0,0,1,3.92,6.24,3.4,3.4,0,0,1,.26,1.51,3,3,0,0,1-.42,1.3,6.11,6.11,0,0,1-2.5,2.2,11,11,0,0,1-3.79,1.18,8,8,0,0,1-3.54-.23,18.93,18.93,0,0,1-7.72-4.67,14.12,14.12,0,0,1-3.74-6.61,12.73,12.73,0,0,1,.38-7.26,15,15,0,0,1,.9-2,16.62,16.62,0,0,1,3.89-4.78c.65-.56,1.3-1.06,2-1.56a18.5,18.5,0,0,1,5.31-2.61,16.47,16.47,0,0,1,7.42-.45c5.62,1,9.66,3.64,13.81,7.36,0,0,0,0,0,0a214.18,214.18,0,0,1,21.41,24.46c2.87,4.52,5.57,9.19,8,13.88a22.37,22.37,0,0,0,1.44,4,.44.44,0,0,0,.16.17,28.21,28.21,0,0,1,1.49,6.86c0,.1,0,.21,0,.32a12,12,0,0,0-4.08-.85c-1,0-.9,1.34,0,1.45l.35.07.16.06a.53.53,0,0,0,.3.22c.46.14.91.31,1.35.48.68.31,1.35.65,2,1a.67.67,0,0,0,1,.59c.45.28.9.57,1.34.87a10.55,10.55,0,0,1,1.22,1.52.74.74,0,0,0,1.35-.49.59.59,0,0,0,.25-.9.69.69,0,0,1-.11-.13h0l0,0a12.09,12.09,0,0,0-3.52-3.11c0-.37,0-.75-.05-1.12a21.94,21.94,0,0,0-1.37-7.94,31,31,0,0,0-3.56-7.7c-1.05-2.14-2.17-4.24-3.36-6.28a139.55,139.55,0,0,0-58-60.53,59.53,59.53,0,0,0-6.2-4.12l-.63-.28a101.3,101.3,0,0,0-10.1-4.13l-.13.22a25.35,25.35,0,0,0-9.87-3.46c-3.14-.5-6.81-1.24-10-.55,0-1.43,0-2.85-.13-4.27a.62.62,0,0,0-.62-.62c-.78.05-1.54.11-2.31.21a.34.34,0,0,0-.15.06.65.65,0,0,0-.45.63q-.09,5.46-.17,10.9A.64.64,0,0,0,198.56,43.56Z"/><path class="cls-3" d="M265.84,62.76h0c.44,2.05,2.9,2.14,4.55,1.91a1,1,0,0,0,.75-.76,5,5,0,0,0-1-4.4,3.3,3.3,0,0,0-3.7-.65,2.38,2.38,0,0,0-1,3.35A2.62,2.62,0,0,0,265.84,62.76Z"/><path class="cls-3" d="M216.36,32.91c2.54-.11,5.1-1.93,5.16-4.64a5,5,0,0,0-4.65-5.05,4.21,4.21,0,0,0-1,.15,1,1,0,0,0-.94-.58,4.66,4.66,0,0,0-4.32,5.43A5.65,5.65,0,0,0,216.36,32.91Zm-3.08-6.61a5,5,0,0,0,.17,2.85A2.81,2.81,0,0,1,213.28,26.3Z"/><path class="cls-3" d="M306.05,124.45c.06.34.64.27.6-.08a65.88,65.88,0,0,0-17.89-36.65c-.19-.2-.48.1-.3.3A70.47,70.47,0,0,1,306.05,124.45Z"/><path class="cls-3" d="M303.31,103.27c1.42,3,2.07,6.1,3.22,9.15.08.2.4.19.39,0-.32-6.4-4.37-13-8.48-17.63-.19-.21-.47.09-.3.3A44.8,44.8,0,0,1,303.31,103.27Z"/><path class="cls-3" d="M117.16,36.35c6.79-1.42,4.43-12.23-2.23-10.68a5.93,5.93,0,0,0-2.6,1.39l0,0a4.76,4.76,0,0,0-.58.61c-.09.1-.17.21-.25.31l-.27.42a5.42,5.42,0,0,0-.26.48l-.15.37a5.35,5.35,0,0,0-.22,3.38A5.55,5.55,0,0,0,117.16,36.35Zm-4.76-5.84a3.86,3.86,0,0,1,4.33-3,3.71,3.71,0,0,1,2.66,3.82,3.17,3.17,0,0,1-.4,1.43,4.28,4.28,0,0,0-.87-3.45c-1.78-2.08-5.67-.83-5.52,2.08.11,2.22,3.28,3,4.49,1.57a1.84,1.84,0,0,1-1,1c-1.7.67-3.5-1-3.75-2.68A4.5,4.5,0,0,1,112.4,30.51Zm2.53,1.41a.45.45,0,0,1-.33-.19l.12-.12C115.3,30.84,116.16,32.1,114.93,31.92Z"/><path class="cls-3" d="M61.25,73.65A3,3,0,0,0,62.9,70,2.79,2.79,0,0,0,63,68c-.93-2.84-4.51-2.32-5.62.08C56.31,70.35,58.39,74.92,61.25,73.65Zm-2.09-4.47a.87.87,0,0,0,.3.51,1,1,0,0,0,0,.17A2.07,2.07,0,0,0,61,71.11a.69.69,0,0,1-.5.61c-.68.12-1.36-1.36-1.4-2A1.75,1.75,0,0,1,59.16,69.18Z"/><path class="cls-3" d="M146.12,40.07h0c0,.29,0,.57,0,.86a.66.66,0,0,0,.45.61,2.17,2.17,0,0,0,1,1.37.71.71,0,0,0,1-.42,10.63,10.63,0,0,0,.65-3.57c0-.81.07-2.18-.76-2.63a.94.94,0,0,0-1,0,.63.63,0,0,0-1.05.23c0,.07,0,.14,0,.2a.63.63,0,0,0-.24.51c0,.34,0,.67,0,1A16.31,16.31,0,0,0,146.12,40.07Z"/><path class="cls-3" d="M306.11,101.08c.78,1.64,1.21,3.52,2.14,5.07.13.21.51.14.48-.13-.3-3.48-2.83-7.3-4.75-10.09-.22-.32-.72,0-.52.3A46.43,46.43,0,0,1,306.11,101.08Z"/><path class="cls-3" d="M169.6,60.63a9.05,9.05,0,0,0,2.16,3.84,18.11,18.11,0,0,0,1.38,1.42c.53.51,1.15,1,1.66,1.51a18.17,18.17,0,0,1,2.58,2.68A5.38,5.38,0,0,1,178.51,73a7.72,7.72,0,0,1-1.14,4.14,28.8,28.8,0,0,1-5,6.37,22.19,22.19,0,0,0-2.8,3.46,9.52,9.52,0,0,0-1.49,3.74,5.56,5.56,0,0,0,.76,3.75c.5.73,2.92,3.18,3.74,2.93a32.84,32.84,0,0,1-2.83-3.43,4.53,4.53,0,0,1-.3-3,8.5,8.5,0,0,1,1.51-3,21.81,21.81,0,0,1,2.78-3,32.78,32.78,0,0,0,5.75-6.58,10.33,10.33,0,0,0,1.7-5.45,8,8,0,0,0-1.47-4.38,20.31,20.31,0,0,0-2.88-3.26l-1.58-1.52c-.43-.4-.8-.81-1.2-1.23a6.21,6.21,0,0,1-1.49-2.55h0a4.78,4.78,0,0,1,.37-3.15,18.42,18.42,0,0,1,3.74-5.19,35.33,35.33,0,0,0,7.92-13,12.35,12.35,0,0,0,.33-7.17,7.3,7.3,0,0,0-1.71-3c-.38-.38-2.7-2.26-3.29-1.95,0,.08,2.31,2.19,2.58,2.54a6.72,6.72,0,0,1,1.18,2.71,11.63,11.63,0,0,1-.81,6.27,34.29,34.29,0,0,1-8.06,11.71,21.63,21.63,0,0,0-4.53,5.85,7.64,7.64,0,0,0-.68,5Z"/><path class="cls-3" d="M193.45,39.06v.2c0,.86,1.36.88,1.36,0v-3a.67.67,0,0,0-.89-.62c-.07-.39-.78-.46-.85,0a8.21,8.21,0,0,0,.13,3.16A.45.45,0,0,0,193.45,39.06Z"/><path class="cls-3" d="M158,62.88a29.94,29.94,0,0,1-2.52-3.05,4,4,0,0,1-.26-2.67,7.56,7.56,0,0,1,1.34-2.69A19.27,19.27,0,0,1,159,51.82a28.9,28.9,0,0,0,5.1-5.83,9.11,9.11,0,0,0,1.5-4.84,7,7,0,0,0-1.29-3.88,18.13,18.13,0,0,0-2.56-2.89L160.39,33c-.38-.36-.71-.72-1.06-1.09A5.45,5.45,0,0,1,158,29.68h0a4.25,4.25,0,0,1,.34-2.8,16.28,16.28,0,0,1,3.31-4.6,31.35,31.35,0,0,0,7-11.51A11,11,0,0,0,169,4.4a6.6,6.6,0,0,0-1.52-2.64c-.34-.33-2.39-2-2.92-1.73,0,.07,2.05,1.94,2.29,2.26a6,6,0,0,1,1.05,2.39,10.44,10.44,0,0,1-.72,5.57A30.26,30.26,0,0,1,160,20.63a19.14,19.14,0,0,0-4,5.19,6.82,6.82,0,0,0-.6,4.48h0a8,8,0,0,0,1.92,3.41A12.93,12.93,0,0,0,158.52,35c.47.46,1,.88,1.47,1.34a16.12,16.12,0,0,1,2.29,2.38,4.64,4.64,0,0,1,1,2.54,6.82,6.82,0,0,1-1,3.67,26.11,26.11,0,0,1-4.44,5.66,18.25,18.25,0,0,0-2.48,3.06A8.34,8.34,0,0,0,154,57a4.89,4.89,0,0,0,.66,3.32C155.14,60.93,157.29,63.09,158,62.88Z"/><path class="cls-3" d="M185.43,281.62c.34-.45,0-1.1-.32-1.44-.12-.12-.34,0-.24.18.3.41.23.78.34,1.23C185.23,281.7,185.37,281.7,185.43,281.62Z"/><path class="cls-3" d="M151.9,281.51a7.39,7.39,0,0,0,1-.6v0a3.87,3.87,0,0,1,1.27-.24.11.11,0,0,0,0-.22,4,4,0,0,0-1.3.17h0c-1.79-.28-3,2-2.67,3.56a3.47,3.47,0,0,0,.17.48,1.22,1.22,0,0,0,.75,1.11.11.11,0,0,0,.11,0l.09-.11a.11.11,0,0,0,0-.16,2.48,2.48,0,0,1-.5-.58.19.19,0,0,1,0-.07,3.89,3.89,0,0,1,0-1.36A3.26,3.26,0,0,1,151.9,281.51Z"/><path class="cls-3" d="M38,182.59a.74.74,0,0,0,.71-.53c.16-1.06.32-2.16-.91-2.43a10.14,10.14,0,0,0-2.85.15l-1.51.15a33.13,33.13,0,0,0-4.81.13c-1.1.12-1.76.57-1.81,1.72a.81.81,0,0,0,.8.8C31.12,182.65,34.58,182.69,38,182.59Z"/><path class="cls-3" d="M116.4,288.38s-.06-.05-.1-.06c-.45-.15-.87.29-1.06.65-.41.77.16,2,1.16,1.62l.07,0a1.1,1.1,0,0,0,0-2.19Z"/><path class="cls-3" d="M148.69,280.18c-.35.34-.67,1-.32,1.44a.12.12,0,0,0,.22,0,2.82,2.82,0,0,1,.33-1.23C149,280.22,148.81,280.06,148.69,280.18Z"/><path class="cls-3" d="M119.17,267.59a.28.28,0,0,0,.41-.14,13.87,13.87,0,0,1,2.68-.31,11.88,11.88,0,0,1,8.07,3l.16.14c.3.27.6.54.88.83l0,0a45.21,45.21,0,0,1,6.88,8.7c4.29,6.85,9.38,14.23,18.56,13.34,2.73-.26,5.47-1.52,6-4.48a5.75,5.75,0,0,0-4.08-6.4c-1.73-.54-6.14-.49-6.16,2.19a1.53,1.53,0,0,0,.9,1.49,2.41,2.41,0,0,0,2.18.7,2.88,2.88,0,0,0,1.31-.51.69.69,0,0,0,.33-1.07.92.92,0,0,0-.73-.77c-.08,0-.12.05-.12.11l-.15,0a.26.26,0,0,0-.22.38c.43.72-.34.87-.89.85,0,0-.06-.07-.1-.08s-.25,0-.38-.08a.91.91,0,0,1-.69-.61,1.54,1.54,0,0,1,.18-1.22,2.79,2.79,0,0,1,1.73-1.08,11.37,11.37,0,0,1,1.38.08,5.63,5.63,0,0,1,4.31,2.33,5,5,0,0,1-.32,5.91c-1.28,1.45-3.48,1.84-5.31,1.91-6.58.26-11.3-4.15-14.68-9.27-4.5-6.81-8.54-14.92-16.81-17.79-6-2.09-14.15-.17-16.45,6.38a10,10,0,0,0-.56,3.49,7.09,7.09,0,0,0,.86,5.36,27.26,27.26,0,0,0,2.41,2.75,7.14,7.14,0,0,1,1.64,2.91,2.67,2.67,0,0,1-.13,2.31,3.31,3.31,0,0,1-.94.87.15.15,0,0,0,.11.27h0c-.9,1.44-2.21,1-4-1.3,0-.67.32-1.9,1.19-1.85a.13.13,0,0,0,.12,0,.88.88,0,0,1,.91,1,.06.06,0,0,0,.12,0c.21-.48-.22-1-.64-1.2a.91.91,0,0,0-.42-.09.26.26,0,0,0-.09-.05c-1.67-.18-2.16,3.09-1,3.92,1.14,1.56,4.11,1.1,5-1.13a3.65,3.65,0,0,0,.18-.56,4.28,4.28,0,0,0,.1-2.43,7.74,7.74,0,0,0-.71-1.92,11.28,11.28,0,0,0,5.87,2.08,9.4,9.4,0,0,0,2.44.1,3.86,3.86,0,0,0,2.51-.42,2,2,0,0,0,1.11-1.92,3.72,3.72,0,0,0,.73-2.57,3,3,0,0,0-4.26-2.46,1.13,1.13,0,0,0-1.18,1.21c0,.56.68,1.36,1.29,1,.17.15.38.26.57.12a.13.13,0,0,0,.07-.15c-.08-.21-.22-.22-.37-.37a.92.92,0,0,1-.25-.79.87.87,0,0,1,.26-.49c2.36-1.18,3.86,2.05,2.75,3.93a4.72,4.72,0,0,1-2.69,2c-.21.06-.43.12-.64.16-6.85.07-12-6.67-8.78-13,.23.15.55-.17.39-.4l-.1-.13c.07-.11.13-.23.2-.35l.06-.08a.27.27,0,0,0,.3-.4h0l.3-.37a.28.28,0,0,0,.22-.24,10.56,10.56,0,0,1,1.49-1.34h0c.21.24.66,0,.55-.31l0-.06.35-.23.23.17c.24.18.54-.12.47-.37,0-.05,0-.1,0-.15a13.29,13.29,0,0,1,3-1.14Zm5.55-.89a13.84,13.84,0,0,0-2.41-.21.26.26,0,0,0,0-.33,1.42,1.42,0,0,0-.11-.18A15,15,0,0,1,124.72,266.7Zm-16.27,7.49h0l.36.53a.3.3,0,0,0-.17.46l.15.22-.12-.08a.31.31,0,0,0-.37,0A9.27,9.27,0,0,1,108.45,274.19Zm.57,6.86a6.88,6.88,0,0,1-1.24-3.15,11.2,11.2,0,0,0,1.52,3.49C109.21,281.28,109.11,281.17,109,281.05Zm.81-1.1a22.81,22.81,0,0,1-1.19-2.37c0-.08-.11-.09-.19-.08,0-.18-.06-.35-.08-.53a10.33,10.33,0,0,0,.88,1.34.34.34,0,0,0,0,.17c.22.45.46.86.71,1.27A.45.45,0,0,0,109.83,280Zm.39-4.31-.37-.53a.31.31,0,0,0,.39-.43l-.37-.64.3.2a.29.29,0,0,0,.36-.05A9.38,9.38,0,0,0,110.22,275.64Zm-.59-4.64c.1-.17.21-.34.32-.51l.81,1.13C110.39,271.4,110,271.2,109.63,271Zm1.9-1.22c-.23-.16-.48.14-.37.36l.35.63q-.57-.37-1.2-.72h0a10.31,10.31,0,0,1,1.51-1.59c.46.79,1,1.1-.07.45a.21.21,0,0,0-.28.28C112,270,113.05,270.81,111.53,269.78Zm1.17.61c-.4-.48-.86-1-.08-.33a.18.18,0,0,0,.28-.22c-.81-1.64-.24-.83.56-.19C113.19,269.89,112.94,270.13,112.7,270.39Zm2.36-3.66c-.26-.18-.63.19-.44.45a8.38,8.38,0,0,1,.54.84l-.86-.64c-.23-.16-.59.11-.48.37s.08.21.13.32c-.24-.21-.47-.42-.72-.62l0,0a11,11,0,0,1,2.31-1,.32.32,0,0,0,0,.19C116.14,267.81,115.8,267.25,115.06,266.73ZM118,266c-.25-.17-.46.1-.42.33l-.48-.35a12,12,0,0,1,1.41-.2.29.29,0,0,0,0,.32c.06.12.1.24.15.35Z"/><path class="cls-3" d="M180.91,280.59h0a4.08,4.08,0,0,0-1.3-.17.11.11,0,1,0,0,.22,3.76,3.76,0,0,1,1.26.24l0,0a7.39,7.39,0,0,0,1,.6,3.26,3.26,0,0,1,1.11,1.92,4.14,4.14,0,0,1,0,1.36s0,0,0,.07a2.48,2.48,0,0,1-.5.58.11.11,0,0,0,0,.16l.09.11a.11.11,0,0,0,.11,0,1.22,1.22,0,0,0,.75-1.11,2.46,2.46,0,0,0,.16-.48C184,282.63,182.69,280.31,180.91,280.59Z"/><path class="cls-3" d="M150,280.68a2.3,2.3,0,0,0-.4.43s0,0,0,0c-.34-.12-.57.29-.65.57a1.09,1.09,0,0,0,.29,1,.22.22,0,0,0,.36-.15,2.08,2.08,0,0,1,.67-1.64C150.33,280.76,150.11,280.56,150,280.68Z"/><path class="cls-3" d="M97.31,264.53a3.52,3.52,0,0,1,.61,1.35c.09.45,0,.93.13,1.35a.17.17,0,0,0,.3,0c.56-.87-.18-2.29-.75-3C97.47,264.14,97.18,264.36,97.31,264.53Z"/><path class="cls-3" d="M75.74,254.43c-.87-.68-6.07-11.81-17.75-12.56-4.32-.28-7.45,2-6.92,4.21C52,250.14,67.83,246.68,75.74,254.43Z"/><path class="cls-3" d="M42,202.64a48.24,48.24,0,0,0-8.84-3,39.37,39.37,0,0,0-10-.89c-6.17.32-11.39,1.27-16.47,5a14.89,14.89,0,0,0-4.13,4.7,14.08,14.08,0,0,0,.73,14.75,10.26,10.26,0,0,0,3.25,3,7.44,7.44,0,0,0,4.11,1.06,4.29,4.29,0,0,0,2.51-.9,3.44,3.44,0,0,0,1.29-1.9,2.55,2.55,0,0,0,0-1.1,2.37,2.37,0,0,0-.45-1,2.83,2.83,0,0,0-.93-.75c-.13-.1-1.35-.46-1.4-.25a10.16,10.16,0,0,0,1.05.79,2.21,2.21,0,0,1,.56.69,1.37,1.37,0,0,1,.16.66,1.54,1.54,0,0,1-.12.63,2.3,2.3,0,0,1-1,1.1,2.84,2.84,0,0,1-1.71.4,5.88,5.88,0,0,1-3.06-1.09,8.84,8.84,0,0,1-2.39-2.63,11.66,11.66,0,0,1-1.45-7.84A11,11,0,0,1,5.24,210a12.27,12.27,0,0,1,3.43-3.53c4.55-2.89,9.25-3.49,14.54-3.61a38,38,0,0,1,7,.71,7.3,7.3,0,0,0-2.21.86c-3.09,1.86-5.93,6-3.37,9.38,1.95,2.55,7,3.78,9,.67,1.57-2.42-.74-5.51-3.32-3.72-.28.19,0,.64.26.46q1.71,5.5-2.17,3.9-3.66-1.11-3.6-5.22c.52-2.43,3.3-4.75,5.6-5.36a9.06,9.06,0,0,1,3.5-.1,45.3,45.3,0,0,1,6.28,2.28C58.76,215,75.76,232,78.41,252.78,77.44,231.31,61.15,211.39,42,202.64Z"/><path class="cls-3" d="M75.73,250.73c-.93-1.34-3.26-19.34-19.35-25.62-6-2.33-11.38-.49-11.63,2.83C44.29,234.07,68.07,236.28,75.73,250.73Z"/><path class="cls-3" d="M96.54,268.17a.13.13,0,0,0,.23.07,2.45,2.45,0,0,0,.12-1.9,3.74,3.74,0,0,0-1-1.78c-.14-.13-.35.07-.21.21a3.54,3.54,0,0,1,.9,1.67A16.64,16.64,0,0,1,96.54,268.17Z"/><path class="cls-3" d="M91.76,263.86c-.07,0-.14.07-.07.12a8.86,8.86,0,0,1,4.2,8.21c0,.05.09.07.1,0A8.22,8.22,0,0,0,91.76,263.86Z"/><path class="cls-3" d="M308.4,301.84c-1.65-3.39-9.48-4.75-13.45-2.52a5.7,5.7,0,0,0-3.52,2.73,7.34,7.34,0,0,0-.81.76.47.47,0,0,0,.37.78.56.56,0,0,0,.89.16c2.55-2.61,6.82-2,10-.86a7.57,7.57,0,0,1,2.17,1.65.63.63,0,0,0,.11.13,2.43,2.43,0,0,0,.2.14,3.13,3.13,0,0,0,2.21,1C308.47,305.66,309.12,303.3,308.4,301.84Zm-4.83-.92-.32-.21a1.78,1.78,0,0,1,1.69,1.26A5.81,5.81,0,0,0,303.57,300.92Zm1.51-.57-.09-.05c1.07.26,1.58.79,1.52,1.62A3.52,3.52,0,0,0,305.08,300.35Zm-2.53,1.85a18.89,18.89,0,0,0-3.65-1.09,8,8,0,0,1,4,.65,7,7,0,0,1,1.86,1.81,5.59,5.59,0,0,0-.74-.63A6.2,6.2,0,0,0,302.55,302.2Z"/><path class="cls-3" d="M299,308.74c-1.29-1.15-3.16-1.71-4.53-.76a6.12,6.12,0,0,0-1.6-.23c-.58,0-.75.95-.14,1l.33.08c-.24.38.05,1,.59.84,2.62-.83,2.3,3.48,3.92,4.49a1.14,1.14,0,0,0,1.88-.74C301.55,312.58,300.36,309.91,299,308.74Zm-1.62,3.07c-.08-.21-.17-.42-.26-.64a6.8,6.8,0,0,1,1.06,1.61.61.61,0,0,1-.07.14C297.81,313.31,297.52,312.11,297.41,311.81Zm2,.47a6.15,6.15,0,0,0-3.57-3.82,2.89,2.89,0,0,1,1.74.44C298.19,309.28,300.39,311.37,299.39,312.28Z"/><path class="cls-3" d="M38.8,300.16c-3-2.18-13.26-3.64-13.58,2.18a3.14,3.14,0,0,0,.67,2.09,1,1,0,0,0,.72,1,.77.77,0,0,0,.54,0,2.63,2.63,0,0,0,1.4.17c1-.17,1.82-1.08,2.64-1.63a10.88,10.88,0,0,1,6.89-1.76.59.59,0,0,0,.3-1.1c-.38-.21-.79-.4-1.21-.58.43.12.86.25,1.31.4S39.15,300.42,38.8,300.16Zm-4.46.6a11.83,11.83,0,0,1,1.16.34,12.26,12.26,0,0,0-1.32.25A.51.51,0,0,0,34.34,300.76Zm-2.9,1.38c0-.1,0-.22-.05-.37a.5.5,0,0,0-.74-.42c-.46.28-.92.56-1.39.83l0-.24c.05-.55-.75-.58-.91-.12l-.43.87c-.08-.14-.15-.29-.23-.46a5.59,5.59,0,0,1,3.35-1.64,7.85,7.85,0,0,1,2.42,0A14.83,14.83,0,0,0,31.44,302.14Zm-2.27-2.35a5.16,5.16,0,0,0-1.88,1.28c0-.07,0-.12-.06-.2A3.67,3.67,0,0,1,29.17,299.79Zm-.52,3.77v0a.52.52,0,0,0,.28,0l1.46-.85c0,.19,0,.38,0,.57h0a1.8,1.8,0,0,1-.55.24A.92.92,0,0,1,28.65,303.56Z"/><path class="cls-3" d="M38.49,307.88c-1.34-1.12-3.54-.87-5-.14s-3,2.34-2,4a.39.39,0,0,0,.61.08,8.11,8.11,0,0,1,5.44-2.43.39.39,0,0,0,.37-.3.4.4,0,0,0,.38-.54,1.4,1.4,0,0,0-.09-.17h.05C38.46,308.4,38.74,308.09,38.49,307.88Z"/></g></g></g></g></svg>